<svg width="50" height="50" viewBox="0 0 50 50" fill="none" xmlns="http://www.w3.org/2000/svg">
<rect width="50" height="50" rx="5" fill="#203458"/>
<path d="M29.8724 32.8776L22.875 25.8802V16.5H27.125V24.1198L32.8776 29.8724L29.8724 32.8776ZM25 8C15.6112 8 8 15.6112 8 25C8 34.3888 15.6112 42 25 42C34.3888 42 42 34.3888 42 25C42 15.6112 34.3888 8 25 8ZM25 37.75C17.9583 37.75 12.25 32.0417 12.25 25C12.25 17.9583 17.9583 12.25 25 12.25C32.0417 12.25 37.75 17.9583 37.75 25C37.75 32.0417 32.0417 37.75 25 37.75Z" fill="white"/>
</svg>
