<svg width="50" height="50" viewBox="0 0 50 50" fill="none" xmlns="http://www.w3.org/2000/svg">
<rect width="50" height="50" rx="5" fill="#203458"/>
<path d="M37.9262 36.3635H12.0739C10.4263 36.3635 9.09094 35.0917 9.09094 33.5226V16.4772C9.09094 14.909 10.4263 13.6363 12.0739 13.6363H37.9262C39.5738 13.6363 40.9091 14.909 40.9091 16.4772V33.5226C40.9091 35.0917 39.5738 36.3635 37.9262 36.3635ZM11.8164 15.5397L11.0895 16.2328L19.2917 24.0434L20.0185 23.3503L11.8164 15.5397V15.5397ZM38.1837 15.5397L29.9816 23.3503L30.7084 24.0434L38.9105 16.2328L38.1837 15.5397V15.5397ZM25.9944 21.8512V21.212H24.0057V21.8512L11.0826 33.2622L12.3473 34.4667L25 23.2944L37.6527 34.4667L38.9175 33.2622L25.9944 21.8512Z" fill="#F7F7F7"/>
</svg>
