<svg width="50" height="50" viewBox="0 0 50 50" fill="none" xmlns="http://www.w3.org/2000/svg">
<rect width="50" height="50" rx="5" fill="#203458"/>
<path d="M32.8409 28.5226C30.6819 30.6817 30.6819 32.8408 28.5228 32.8408C26.3637 32.8408 24.2046 30.6817 22.0455 28.5226C19.8864 26.3635 17.7273 24.2045 17.7273 22.0454C17.7273 19.8863 19.8864 19.8863 22.0455 17.7272C24.2046 15.5681 17.7273 9.09082 15.5682 9.09082C13.4091 9.09082 9.09094 15.5681 9.09094 15.5681C9.09094 19.8863 13.5272 28.6407 17.7273 32.8408C21.9274 37.0409 30.6819 41.4772 35 41.4772C35 41.4772 41.4773 37.159 41.4773 34.9999C41.4773 32.8408 35 26.3635 32.8409 28.5226Z" fill="white"/>
</svg>
