<svg width="66" height="84" viewBox="0 0 66 84" fill="none" xmlns="http://www.w3.org/2000/svg">
<g clip-path="url(#clip0_230_141)">
<path d="M18 61.5V64.5C18 65.2969 17.2969 66 16.5 66H13.5C12.7031 66 12 65.2969 12 64.5V61.5C12 60.7031 12.7031 60 13.5 60H16.5C17.2969 60 18 60.7031 18 61.5ZM18 49.5V52.5C18 53.2969 17.2969 54 16.5 54H13.5C12.7031 54 12 53.2969 12 52.5V49.5C12 48.7031 12.7031 48 13.5 48H16.5C17.2969 48 18 48.7031 18 49.5ZM30 49.5V52.5C30 53.2969 29.2969 54 28.5 54H25.5C24.7031 54 24 53.2969 24 52.5V49.5C24 48.7031 24.7031 48 25.5 48H28.5C29.2969 48 30 48.7031 30 49.5ZM18 37.5V40.5C18 41.2969 17.2969 42 16.5 42H13.5C12.7031 42 12 41.2969 12 40.5V37.5C12 36.7031 12.7031 36 13.5 36H16.5C17.2969 36 18 36.7031 18 37.5ZM54 61.5V64.5C54 65.2969 53.2969 66 52.5 66H49.5C48.7031 66 48 65.2969 48 64.5V61.5C48 60.7031 48.7031 60 49.5 60H52.5C53.2969 60 54 60.7031 54 61.5ZM42 49.5V52.5C42 53.2969 41.2969 54 40.5 54H37.5C36.7031 54 36 53.2969 36 52.5V49.5C36 48.7031 36.7031 48 37.5 48H40.5C41.2969 48 42 48.7031 42 49.5ZM30 37.5V40.5C30 41.2969 29.2969 42 28.5 42H25.5C24.7031 42 24 41.2969 24 40.5V37.5C24 36.7031 24.7031 36 25.5 36H28.5C29.2969 36 30 36.7031 30 37.5ZM18 25.5V28.5C18 29.2969 17.2969 30 16.5 30H13.5C12.7031 30 12 29.2969 12 28.5V25.5C12 24.7031 12.7031 24 13.5 24H16.5C17.2969 24 18 24.7031 18 25.5ZM54 49.5V52.5C54 53.2969 53.2969 54 52.5 54H49.5C48.7031 54 48 53.2969 48 52.5V49.5C48 48.7031 48.7031 48 49.5 48H52.5C53.2969 48 54 48.7031 54 49.5ZM42 37.5V40.5C42 41.2969 41.2969 42 40.5 42H37.5C36.7031 42 36 41.2969 36 40.5V37.5C36 36.7031 36.7031 36 37.5 36H40.5C41.2969 36 42 36.7031 42 37.5ZM30 25.5V28.5C30 29.2969 29.2969 30 28.5 30H25.5C24.7031 30 24 29.2969 24 28.5V25.5C24 24.7031 24.7031 24 25.5 24H28.5C29.2969 24 30 24.7031 30 25.5ZM18 13.5V16.5C18 17.2969 17.2969 18 16.5 18H13.5C12.7031 18 12 17.2969 12 16.5V13.5C12 12.7031 12.7031 12 13.5 12H16.5C17.2969 12 18 12.7031 18 13.5ZM54 37.5V40.5C54 41.2969 53.2969 42 52.5 42H49.5C48.7031 42 48 41.2969 48 40.5V37.5C48 36.7031 48.7031 36 49.5 36H52.5C53.2969 36 54 36.7031 54 37.5ZM42 25.5V28.5C42 29.2969 41.2969 30 40.5 30H37.5C36.7031 30 36 29.2969 36 28.5V25.5C36 24.7031 36.7031 24 37.5 24H40.5C41.2969 24 42 24.7031 42 25.5ZM30 13.5V16.5C30 17.2969 29.2969 18 28.5 18H25.5C24.7031 18 24 17.2969 24 16.5V13.5C24 12.7031 24.7031 12 25.5 12H28.5C29.2969 12 30 12.7031 30 13.5ZM54 25.5V28.5C54 29.2969 53.2969 30 52.5 30H49.5C48.7031 30 48 29.2969 48 28.5V25.5C48 24.7031 48.7031 24 49.5 24H52.5C53.2969 24 54 24.7031 54 25.5ZM42 13.5V16.5C42 17.2969 41.2969 18 40.5 18H37.5C36.7031 18 36 17.2969 36 16.5V13.5C36 12.7031 36.7031 12 37.5 12H40.5C41.2969 12 42 12.7031 42 13.5ZM54 13.5V16.5C54 17.2969 53.2969 18 52.5 18H49.5C48.7031 18 48 17.2969 48 16.5V13.5C48 12.7031 48.7031 12 49.5 12H52.5C53.2969 12 54 12.7031 54 13.5ZM42 78H60V6H6V78H24V67.5C24 66.7031 24.7031 66 25.5 66H40.5C41.2969 66 42 66.7031 42 67.5V78ZM66 3V81C66 82.6406 64.6406 84 63 84H3C1.35938 84 0 82.6406 0 81V3C0 1.35938 1.35938 0 3 0H63C64.6406 0 66 1.35938 66 3Z" fill="#203458"/>
</g>
<defs>
<clipPath id="clip0_230_141">
<rect width="66" height="84" fill="white"/>
</clipPath>
</defs>
</svg>
