<svg width="84" height="84" viewBox="0 0 84 84" fill="none" xmlns="http://www.w3.org/2000/svg">
<path d="M80.5 42C80.5 31.3705 76.188 21.7385 69.223 14.777C62.258 7.8155 52.6295 3.5 42 3.5C31.3705 3.5 21.7385 7.812 14.777 14.777C7.8155 21.742 3.5 31.3705 3.5 42C3.5 52.6295 7.812 62.2615 14.777 69.223C21.742 76.1845 31.3705 80.5 42 80.5C52.6295 80.5 62.2615 76.188 69.223 69.223C76.1845 62.258 80.5 52.6295 80.5 42ZM73.5 42C73.5 50.701 69.979 58.569 64.274 64.274C58.569 69.979 50.701 73.5 42 73.5C33.299 73.5 25.431 69.979 19.726 64.274C14.021 58.569 10.5 50.701 10.5 42C10.5 33.299 14.021 25.431 19.726 19.726C25.431 14.021 33.299 10.5 42 10.5C50.701 10.5 58.569 14.021 64.274 19.726C69.979 25.431 73.5 33.299 73.5 42ZM38.5 21V42C38.5 43.3615 39.277 44.5445 40.4355 45.129L54.4355 52.129C56.1645 52.9935 58.268 52.2935 59.1325 50.5645C59.997 48.8355 59.297 46.732 57.568 45.8675L45.5 39.837V21C45.5 19.068 43.932 17.5 42 17.5C40.068 17.5 38.5 19.068 38.5 21Z" fill="#203458"/>
</svg>
