<svg width="86" height="86" viewBox="0 0 86 86" fill="none" xmlns="http://www.w3.org/2000/svg">
<path d="M43 0C19.2518 0 0 19.2518 0 43C0 66.7482 19.2518 86 43 86C66.7484 86 86 66.7484 86 43C86 19.2516 66.7484 0 43 0ZM43 77.4C24.0013 77.4 8.6 61.9987 8.6 43C8.6 24.0013 24.0013 8.6 43 8.6C61.9987 8.6 77.4 24.0013 77.4 43C77.4 61.9987 61.9987 77.4 43 77.4ZM45.8667 40.1333V28.6667H57.3333V22.9333H45.8667V17.2H40.1333V22.9333H28.6667V45.8667H40.1333V57.3333H28.6667V63.0667H40.1333V68.8H45.8667V63.0667H57.3335L57.3333 40.1333H45.8667ZM40.1333 40.1333H34.4V28.6667H40.1333V40.1333ZM51.6002 57.3333H45.8667V45.8667H51.6002V57.3333Z" fill="#203458"/>
</svg>
