<svg width="84" height="84" viewBox="0 0 84 84" fill="none" xmlns="http://www.w3.org/2000/svg">
<path d="M80.5 59.2201C80.556 56.7211 79.674 54.3061 78.1445 52.4196C76.5345 50.4386 74.193 49.0351 71.407 48.6396C68.607 48.2966 65.4745 47.5406 62.356 46.3786C60.8405 45.8221 59.2305 45.6156 57.652 45.7696C55.3315 45.9936 53.0775 46.9911 51.2855 48.7621L48.7655 51.2821C42.5705 47.3726 37.0055 41.9476 32.725 35.2206L35.266 32.6796C36.393 31.5246 37.2365 30.1386 37.7405 28.6336C38.4825 26.4216 38.4895 23.9576 37.604 21.5951C36.5925 18.9596 35.791 15.8411 35.35 12.5126C34.986 10.0136 33.754 7.80507 31.9795 6.19857C30.093 4.49757 27.5835 3.47207 24.885 3.50007H14.399C14.091 3.50007 13.762 3.51407 13.4435 3.54207C10.5595 3.80457 8.04653 5.21507 6.32803 7.27307C4.60953 9.33107 3.67503 12.0576 3.93753 14.9696C4.98753 25.7356 8.71503 36.8201 15.1935 46.8266C20.4505 55.2721 27.9615 63.0071 37.2365 68.8976C46.2245 74.8371 57.1305 78.9146 69.0375 80.2061C69.3595 80.2376 69.706 80.2516 70.0455 80.2516C72.9435 80.2411 75.5685 79.0511 77.4585 77.1471C79.3485 75.2431 80.514 72.6076 80.5035 69.7236L80.5 59.2201ZM73.5 59.2201V69.7201C73.5035 70.7001 73.1185 71.5751 72.485 72.2121C71.8515 72.8491 70.9835 73.2446 70.014 73.2481C58.9925 72.0721 49.1505 68.3796 41.0935 63.0561C32.5955 57.6556 25.837 50.6766 21.1365 43.1271C15.197 33.9571 11.844 23.9436 10.9025 14.2941C10.8185 13.3561 11.1265 12.4531 11.704 11.7601C12.2815 11.0671 13.1145 10.6051 14.077 10.5176L24.885 10.5001C25.8335 10.4896 26.6595 10.8291 27.2895 11.3961C27.8845 11.9351 28.2975 12.6771 28.42 13.5241C28.917 17.2761 29.848 20.9336 31.0695 24.1116C31.353 24.8676 31.3495 25.6761 31.1045 26.4146C30.933 26.9221 30.646 27.3981 30.2575 27.7971L25.8405 32.2106C24.7065 33.3446 24.514 35.0596 25.2735 36.4141C30.8175 46.1616 38.71 53.7636 47.607 58.7371C48.9965 59.5141 50.694 59.2411 51.7895 58.1561L56.2345 53.7111C56.8155 53.1371 57.554 52.8116 58.3275 52.7346C58.8595 52.6821 59.4125 52.7521 59.934 52.9446C63.511 54.2781 67.179 55.1706 70.553 55.5836C71.3965 55.7026 72.17 56.1646 72.7055 56.8261C73.22 57.4596 73.514 58.2681 73.4965 59.2131L73.5 59.2201Z" fill="#203458"/>
</svg>
