<svg width="84" height="84" viewBox="0 0 84 84" fill="none" xmlns="http://www.w3.org/2000/svg">
<g clip-path="url(#clip0_230_154)">
<path d="M10.5 73.5H84V84H0V0H10.5V73.5ZM23.625 68.25C19.2757 68.25 15.75 64.7243 15.75 60.375C15.75 56.0257 19.2757 52.5 23.625 52.5C23.857 52.5 24.0862 52.5121 24.3131 52.5317L32.778 38.4234C31.9709 37.1872 31.5 35.7113 31.5 34.1248C31.5 29.7755 35.0257 26.2498 39.375 26.2498C43.7243 26.2498 47.25 29.7755 47.25 34.1248C47.25 35.7115 46.7791 37.1872 45.972 38.4234L54.4369 52.5317C54.6638 52.5121 54.893 52.5 55.125 52.5C55.3002 52.5 55.4735 52.5077 55.6459 52.5189L69.6204 28.0635C68.7561 26.7996 68.25 25.2715 68.25 23.6248C68.25 19.2755 71.7757 15.7498 76.125 15.7498C80.4743 15.7498 84 19.2755 84 23.6248C84 27.9741 80.4743 31.4998 76.125 31.4998C75.9495 31.4998 75.7765 31.4921 75.6041 31.4808L61.6296 55.9363C62.4939 57.2001 63 58.7283 63 60.375C63 64.7243 59.4743 68.25 55.125 68.25C50.7757 68.25 47.25 64.7243 47.25 60.375C47.25 58.7885 47.7209 57.3126 48.5279 56.0764L40.0631 41.9683C39.8362 41.9879 39.607 42 39.375 42C39.143 42 38.9138 41.988 38.6869 41.9683L30.222 56.0766C31.0291 57.3126 31.5 58.7885 31.5 60.375C31.5 64.7243 27.9743 68.25 23.625 68.25V68.25Z" fill="#203458"/>
</g>
<defs>
<clipPath id="clip0_230_154">
<rect width="84" height="84" fill="white"/>
</clipPath>
</defs>
</svg>
