<svg width="741" height="492" viewBox="0 0 741 492" fill="none" xmlns="http://www.w3.org/2000/svg">
<path d="M624.534 137.76C624.534 137.76 522.988 34.1644 391.021 26.1645C259.054 18.1645 182.098 103.074 145.631 153.711C109.164 204.347 18.1792 288.715 28.9089 365.969C39.6385 443.223 144.831 501.84 295.521 476.089C446.21 450.337 489.9 440.566 558.556 460.108C627.212 479.651 716.379 450.337 718.157 339.332C719.936 228.327 624.534 137.76 624.534 137.76Z" fill="#FFC501"/>
<path opacity="0.7" d="M624.534 137.76C624.534 137.76 522.988 34.1644 391.021 26.1645C259.054 18.1645 182.098 103.074 145.631 153.711C109.164 204.347 18.1792 288.715 28.9089 365.969C39.6385 443.223 144.831 501.84 295.521 476.089C446.21 450.337 489.9 440.566 558.556 460.108C627.212 479.651 716.379 450.337 718.157 339.332C719.936 228.327 624.534 137.76 624.534 137.76Z" fill="white"/>
<path d="M665.655 436.197H713.089" stroke="#263238" stroke-linecap="round" stroke-linejoin="round"/>
<path d="M64.6053 436.197H654.777" stroke="#263238" stroke-linecap="round" stroke-linejoin="round"/>
<path d="M42.0592 436.197H56.0592" stroke="#263238" stroke-linecap="round" stroke-linejoin="round"/>
<path d="M645.658 323.224C647.282 323.616 648.997 323.35 650.425 322.485C651.853 321.62 652.878 320.226 653.276 318.609L657.307 302.088C657.7 300.47 657.433 298.763 656.564 297.34C655.696 295.918 654.296 294.897 652.673 294.501C651.05 294.11 649.337 294.376 647.91 295.241C646.484 296.106 645.461 297.5 645.065 299.116L641.024 315.618C640.825 316.42 640.787 317.254 640.913 318.071C641.038 318.888 641.324 319.673 641.755 320.379C642.185 321.086 642.752 321.701 643.422 322.189C644.091 322.678 644.851 323.029 645.658 323.224Z" fill="white" stroke="#263238" stroke-linecap="round" stroke-linejoin="round"/>
<path d="M652.08 342.52C652.625 342.671 653.198 342.696 653.755 342.595C654.312 342.493 654.838 342.267 655.295 341.934C655.751 341.6 656.126 341.168 656.39 340.67C656.655 340.172 656.803 339.62 656.822 339.057L658.492 318.304C658.563 317.057 658.204 315.822 657.475 314.806C656.745 313.789 655.689 313.052 654.481 312.715C653.935 312.564 653.361 312.539 652.804 312.641C652.246 312.743 651.719 312.97 651.263 313.305C650.806 313.639 650.431 314.072 650.167 314.572C649.903 315.072 649.757 315.624 649.738 316.189L648.059 336.931C647.986 338.18 648.346 339.417 649.078 340.434C649.809 341.451 650.869 342.187 652.08 342.52Z" fill="white" stroke="#263238" stroke-linecap="round" stroke-linejoin="round"/>
<path d="M607.541 319.573L628.595 315.214C636.003 315.066 643.398 315.873 650.598 317.615L664.746 321.039C665.489 321.22 666.26 321.253 667.016 321.137C667.771 321.02 668.497 320.757 669.15 320.361C669.803 319.965 670.372 319.445 670.823 318.831C671.275 318.216 671.6 317.519 671.781 316.779L674.745 304.636C675.108 303.141 674.86 301.563 674.056 300.249C673.252 298.936 671.958 297.994 670.457 297.63L658.996 294.855C650.324 292.757 642.036 289.317 634.434 284.661L619.476 270.6L607.541 319.573Z" fill="white" stroke="#263238" stroke-linecap="round" stroke-linejoin="round"/>
<path d="M651.092 292.514C653.7 293.419 656.338 294.206 658.996 294.856L670.437 297.63C671.938 297.994 673.233 298.936 674.037 300.25C674.841 301.564 675.088 303.141 674.725 304.637L671.761 316.779C671.58 317.519 671.255 318.216 670.804 318.831C670.352 319.446 669.784 319.966 669.13 320.361C668.477 320.757 667.752 321.021 666.996 321.137C666.24 321.253 665.469 321.22 664.726 321.04L650.578 317.616C648.813 317.183 647.028 316.809 645.223 316.494L651.092 292.514Z" fill="#263238" stroke="#263238" stroke-linecap="round" stroke-linejoin="round"/>
<path d="M604.737 325.581L605.61 325.792C608.118 326.4 610.646 324.868 611.256 322.371L623.584 271.928C624.195 269.43 622.656 266.913 620.149 266.305L619.275 266.093C616.767 265.485 614.24 267.017 613.629 269.514L601.301 319.958C600.691 322.455 602.229 324.973 604.737 325.581Z" fill="#FFC501" stroke="#263238" stroke-linecap="round" stroke-linejoin="round"/>
<path d="M596.88 274.684L601.82 282.447" stroke="#263238" stroke-width="2" stroke-linecap="round" stroke-linejoin="round"/>
<path d="M588.927 307.244L596.89 302.609" stroke="#263238" stroke-width="2" stroke-linecap="round" stroke-linejoin="round"/>
<path d="M597.621 292.612L587.949 290.27" stroke="#263238" stroke-width="2" stroke-linecap="round" stroke-linejoin="round"/>
<path d="M648.128 334.56L644.739 337.433C644.343 337.776 644.063 338.233 643.939 338.742C643.859 339.06 643.844 339.391 643.893 339.716C643.943 340.04 644.056 340.352 644.227 340.633C644.397 340.914 644.622 341.158 644.888 341.352C645.154 341.546 645.456 341.685 645.777 341.762L656.477 344.36L657.148 334.619L648.128 334.56Z" fill="#263238" stroke="#263238" stroke-linecap="round" stroke-linejoin="round"/>
<path d="M665.448 305.286C665.518 305.005 665.67 304.752 665.885 304.557C666.1 304.362 666.368 304.235 666.655 304.191C666.942 304.148 667.236 304.19 667.499 304.313C667.762 304.435 667.983 304.632 668.134 304.88C668.285 305.127 668.359 305.413 668.347 305.702C668.335 305.991 668.237 306.27 668.066 306.504C667.895 306.738 667.658 306.916 667.386 307.016C667.113 307.117 666.817 307.134 666.534 307.067C666.344 307.023 666.165 306.942 666.007 306.828C665.849 306.715 665.716 306.571 665.614 306.405C665.513 306.239 665.446 306.054 665.418 305.862C665.389 305.67 665.399 305.474 665.448 305.286Z" fill="#FFC501"/>
<path d="M602.581 368.518V356.208H606.207C606.835 356.183 607.458 356.322 608.015 356.611C608.464 356.892 608.811 357.31 609.003 357.802C609.235 358.404 609.346 359.046 609.329 359.691C609.361 360.371 609.222 361.047 608.924 361.659C608.668 362.132 608.262 362.506 607.768 362.722C607.22 362.958 606.626 363.072 606.029 363.056H604.804V368.518H602.581ZM604.834 361.482H605.693C606.032 361.504 606.372 361.444 606.681 361.305C606.795 361.25 606.896 361.171 606.978 361.075C607.06 360.978 607.12 360.865 607.156 360.744C607.254 360.409 607.297 360.06 607.284 359.711C607.294 359.348 607.26 358.984 607.185 358.628C607.162 358.501 607.112 358.38 607.039 358.274C606.966 358.167 606.871 358.077 606.76 358.009C606.452 357.864 606.113 357.796 605.772 357.812H604.913L604.834 361.482Z" fill="#263238"/>
<path d="M610.584 368.518V356.208H613.548C614.264 356.19 614.979 356.29 615.662 356.503C616.199 356.669 616.661 357.017 616.967 357.487C617.304 358.086 617.462 358.769 617.421 359.455C617.424 359.902 617.378 360.347 617.283 360.784C617.2 361.141 617.041 361.476 616.818 361.768C616.579 362.059 616.265 362.28 615.909 362.407L617.628 368.459H615.326L613.834 362.83H612.846V368.459L610.584 368.518ZM612.846 361.482H613.538C613.897 361.5 614.255 361.436 614.585 361.295C614.841 361.169 615.038 360.951 615.139 360.685C615.266 360.342 615.323 359.978 615.307 359.613C615.34 359.127 615.223 358.642 614.971 358.225C614.803 358.054 614.599 357.923 614.373 357.843C614.147 357.763 613.905 357.736 613.667 357.763H612.846V361.482Z" fill="#263238"/>
<path d="M622.381 368.685C621.654 368.723 620.932 368.556 620.296 368.203C619.774 367.878 619.38 367.385 619.18 366.806C618.945 366.112 618.832 365.383 618.844 364.651V360.055C618.83 359.333 618.944 358.613 619.18 357.93C619.384 357.363 619.779 356.884 620.296 356.572C620.95 356.261 621.666 356.1 622.391 356.1C623.115 356.1 623.831 356.261 624.485 356.572C625.001 356.886 625.394 357.365 625.602 357.93C625.847 358.611 625.964 359.332 625.947 360.055V364.67C625.961 365.394 625.844 366.114 625.602 366.796C625.395 367.372 625.002 367.863 624.485 368.193C623.843 368.549 623.114 368.719 622.381 368.685ZM622.381 367.032C622.679 367.058 622.976 366.97 623.211 366.786C623.397 366.61 623.522 366.379 623.566 366.127C623.628 365.822 623.657 365.512 623.655 365.202V359.544C623.658 359.233 623.629 358.923 623.566 358.619C623.521 358.37 623.397 358.142 623.211 357.969C622.965 357.816 622.681 357.734 622.391 357.734C622.1 357.734 621.816 357.816 621.571 357.969C621.382 358.141 621.253 358.369 621.205 358.619C621.143 358.923 621.113 359.233 621.116 359.544V365.202C621.114 365.512 621.144 365.822 621.205 366.127C621.241 366.382 621.367 366.615 621.561 366.786C621.793 366.969 622.086 367.057 622.381 367.032Z" fill="#263238"/>
<path d="M627.568 368.518L627.785 356.237H630.117L631.865 364.739L633.693 356.237H635.946L636.173 368.518H634.504L634.316 359.976L632.567 368.518H631.213L629.425 359.947L629.267 368.518H627.568Z" fill="#263238"/>
<path d="M641.35 368.685C640.624 368.723 639.901 368.556 639.266 368.203C638.747 367.878 638.356 367.384 638.159 366.806C637.92 366.113 637.806 365.383 637.823 364.651V360.055C637.803 359.332 637.917 358.612 638.159 357.93C638.36 357.364 638.751 356.884 639.266 356.572C639.904 356.227 640.625 356.064 641.35 356.1C642.085 356.061 642.817 356.224 643.465 356.572C643.977 356.887 644.367 357.366 644.571 357.93C644.816 358.611 644.934 359.332 644.917 360.055V364.67C644.931 365.394 644.814 366.114 644.571 366.796C644.368 367.371 643.979 367.863 643.465 368.193C642.82 368.551 642.087 368.721 641.35 368.685ZM641.35 367.032C641.648 367.058 641.945 366.97 642.18 366.786C642.367 366.61 642.492 366.379 642.536 366.127C642.605 365.823 642.639 365.513 642.635 365.202V359.544C642.64 359.233 642.607 358.922 642.536 358.619C642.491 358.37 642.366 358.142 642.18 357.969C641.942 357.793 641.647 357.709 641.35 357.733C641.064 357.712 640.779 357.796 640.55 357.969C640.358 358.138 640.229 358.367 640.185 358.619C640.114 358.922 640.081 359.233 640.086 359.544V365.202C640.084 365.512 640.113 365.822 640.175 366.127C640.215 366.38 640.341 366.612 640.53 366.786C640.763 366.968 641.056 367.056 641.35 367.032Z" fill="#263238"/>
<path d="M647.753 368.518V357.891H645.777V356.208H651.922V357.861H649.946V368.488L647.753 368.518Z" fill="#263238"/>
<path d="M653.127 368.518V356.208H655.35V368.488L653.127 368.518Z" fill="#263238"/>
<path d="M660.597 368.685C659.87 368.718 659.149 368.551 658.512 368.203C657.993 367.878 657.602 367.384 657.405 366.805C657.166 366.113 657.053 365.383 657.069 364.65V360.055C657.05 359.332 657.164 358.612 657.405 357.93C657.606 357.364 657.997 356.884 658.512 356.572C659.168 356.261 659.885 356.099 660.611 356.099C661.338 356.099 662.055 356.261 662.711 356.572C663.223 356.887 663.613 357.366 663.817 357.93C664.063 358.611 664.18 359.332 664.163 360.055V364.67C664.177 365.394 664.06 366.114 663.817 366.796C663.615 367.371 663.225 367.862 662.711 368.193C662.066 368.55 661.334 368.721 660.597 368.685ZM660.597 367.032C660.895 367.058 661.191 366.97 661.427 366.786C661.613 366.608 661.74 366.378 661.792 366.126C661.853 365.822 661.883 365.512 661.881 365.202V359.544C661.884 359.233 661.854 358.923 661.792 358.619C661.74 358.37 661.612 358.143 661.427 357.969C661.188 357.793 660.893 357.709 660.597 357.733C660.31 357.712 660.025 357.796 659.796 357.969C659.604 358.138 659.475 358.367 659.431 358.619C659.36 358.922 659.327 359.232 659.332 359.544V365.202C659.33 365.512 659.36 365.822 659.421 366.126C659.462 366.38 659.587 366.612 659.777 366.786C660.009 366.968 660.302 367.055 660.597 367.032Z" fill="#263238"/>
<path d="M665.823 368.518V356.208H667.394L670.358 363.214V356.208H672.215V368.488H670.753L667.789 361.148V368.488L665.823 368.518Z" fill="#263238"/>
<path d="M663.6 192.962L658.848 189.341L653.157 185.002L637.201 172.84V172.83L637.181 172.82L637.062 172.731L619.703 185.248L613.736 189.538L608.865 193.061L620.089 134.434L625.434 106.528L645.174 106.941L646.646 106.971L647.792 106.99L652.505 132.604L663.6 192.962Z" fill="#FFC501" stroke="#263238" stroke-linecap="round" stroke-linejoin="round"/>
<path d="M652.505 132.604C651.789 132.367 651.021 132.343 650.292 132.535C649.304 133.066 649.047 135.389 647.96 135.802C646.873 136.215 645.154 134.66 644.008 134.965C642.862 135.27 642.19 137.494 641.044 137.681C639.898 137.868 638.535 135.969 637.369 136.038C636.203 136.107 635.067 138.134 633.901 138.075C632.735 138.016 631.777 135.89 630.64 135.713C629.504 135.536 627.933 137.288 626.827 137.002C625.72 136.717 625.206 134.424 624.13 134.05C623.053 133.676 621.166 135.034 620.178 134.503H620.108L625.404 106.528L645.164 106.941H646.636H647.782L652.505 132.604Z" fill="#263238" stroke="#263238" stroke-linecap="round" stroke-linejoin="round"/>
<path d="M603.411 96.1664C603.47 94.9955 601.564 93.6474 601.741 92.5158C601.919 91.3842 604.142 90.6462 604.429 89.5638C604.715 88.4814 603.144 86.72 603.549 85.6278C603.955 84.5355 606.296 84.3092 606.81 83.276C607.324 82.2428 606.148 80.2355 606.81 79.2711C607.472 78.3068 609.774 78.543 610.485 77.6475C611.197 76.7521 610.485 74.5381 611.286 73.7115C612.086 72.885 614.329 73.6131 615.238 72.8751C616.146 72.1371 615.87 69.8346 616.838 69.195C617.806 68.5554 619.802 69.7263 620.859 69.195C621.916 68.6636 622.104 66.3414 623.191 65.9183C624.278 65.4951 626.007 67.0597 627.143 66.7547C628.279 66.4496 628.951 64.2356 630.107 64.0487C631.263 63.8617 632.616 65.751 633.782 65.6919C634.948 65.6329 636.074 63.596 637.25 63.6551C638.426 63.7141 639.374 65.8395 640.501 66.0068C641.627 66.1741 643.208 64.4423 644.314 64.7276C645.421 65.013 645.935 67.3057 647.012 67.6796C648.088 68.0535 649.976 66.6956 650.964 67.227C651.952 67.7583 651.952 70.0707 652.94 70.7005C653.928 71.3303 656.042 70.3561 656.941 71.0843C657.84 71.8124 657.356 74.0363 658.186 74.9022C659.016 75.7681 661.288 75.2072 662.019 76.1027C662.75 76.9981 661.802 79.1235 662.444 80.0879C663.086 81.0522 665.408 81.0227 665.951 82.0559C666.495 83.0891 665.102 84.9587 665.527 85.9919C665.952 87.0251 668.244 87.5269 668.55 88.6487C668.856 89.7704 667.108 91.3055 667.295 92.4567C667.483 93.608 669.627 94.5133 669.686 95.6744C669.745 96.8355 667.71 97.977 667.71 99.1479C667.71 100.319 669.558 101.667 669.39 102.799C669.222 103.93 666.989 104.668 666.692 105.751C666.396 106.833 667.977 108.594 667.572 109.687C667.167 110.779 664.835 111.015 664.311 112.038C663.788 113.062 664.973 115.079 664.311 116.053C663.649 117.027 661.347 116.771 660.626 117.677C659.905 118.582 660.626 120.786 659.826 121.613C659.026 122.439 656.783 121.711 655.874 122.439C654.965 123.167 655.251 125.49 654.283 126.119C653.315 126.749 651.319 125.588 650.252 126.119C649.185 126.651 649.007 128.963 647.92 129.386C646.834 129.809 645.105 128.245 643.968 128.55C642.832 128.855 642.151 131.079 641.004 131.266C639.858 131.453 638.505 129.554 637.339 129.622C636.173 129.691 635.037 131.718 633.861 131.659C632.686 131.6 631.747 129.475 630.611 129.298C629.475 129.121 627.904 130.872 626.797 130.577C625.69 130.282 625.177 128.009 624.1 127.625C623.023 127.241 621.136 128.609 620.098 128.087C619.061 127.566 619.11 125.234 618.122 124.614C617.134 123.994 615.02 124.948 614.17 124.23C613.321 123.512 613.755 121.219 612.935 120.412C612.115 119.605 609.823 120.107 609.092 119.212C608.361 118.316 609.309 116.191 608.667 115.276C608.025 114.361 605.703 114.292 605.16 113.308C604.616 112.324 606.01 110.356 605.585 109.313C605.16 108.27 602.878 107.787 602.621 106.666C602.364 105.544 604.053 103.999 603.866 102.858C603.678 101.716 601.534 100.791 601.475 99.6301C601.415 98.469 603.362 97.3275 603.411 96.1664Z" fill="#FFC501" stroke="#263238" stroke-linecap="round" stroke-linejoin="round"/>
<path d="M643.888 123.653C658.28 119.072 666.219 103.739 661.621 89.4053C657.022 75.0712 641.627 67.164 627.234 71.7441C612.842 76.3242 604.902 91.6572 609.501 105.991C614.1 120.325 629.495 128.233 643.888 123.653Z" fill="#263238" stroke="#263238" stroke-linecap="round" stroke-linejoin="round"/>
<path d="M655.804 110.986C663.176 99.8465 660.085 84.864 648.9 77.5216C637.716 70.1792 622.672 73.2574 615.3 84.3969C607.928 95.5365 611.018 110.519 622.203 117.861C633.388 125.204 648.432 122.126 655.804 110.986Z" fill="white" stroke="#263238" stroke-linecap="round" stroke-linejoin="round"/>
<path d="M617.945 93.9722L618.735 96.3928H621.294L619.219 97.8885L620.009 100.319L617.945 98.8134L615.87 100.319L616.66 97.8885L614.595 96.3928H617.154L617.945 93.9722Z" fill="#FFC501" stroke="#263238" stroke-width="0.5" stroke-linecap="round" stroke-linejoin="round"/>
<path d="M626.718 93.9722L627.508 96.3928H630.067L628.002 97.8885L628.783 100.319L626.718 98.8134L624.653 100.319L625.443 97.8885L623.369 96.3928H625.928L626.718 93.9722Z" fill="#FFC501" stroke="#263238" stroke-width="0.5" stroke-linecap="round" stroke-linejoin="round"/>
<path d="M635.492 93.9722L636.282 96.3928H638.841L636.776 97.8885L637.566 100.319L635.492 98.8134L633.427 100.319L634.217 97.8885L632.152 96.3928H634.701L635.492 93.9722Z" fill="#FFC501" stroke="#263238" stroke-width="0.5" stroke-linecap="round" stroke-linejoin="round"/>
<path d="M644.275 93.9722L645.065 96.3928H647.624L645.549 97.8885L646.34 100.319L644.275 98.8134L642.2 100.319L642.99 97.8885L640.926 96.3928H643.484L644.275 93.9722Z" fill="#FFC501" stroke="#263238" stroke-width="0.5" stroke-linecap="round" stroke-linejoin="round"/>
<path d="M653.048 93.9722L653.839 96.3928H656.398L654.323 97.8885L655.123 100.319L653.048 98.8134L650.983 100.319L651.774 97.8885L649.699 96.3928H652.258L653.048 93.9722Z" fill="#FFC501" stroke="#263238" stroke-width="0.5" stroke-linecap="round" stroke-linejoin="round"/>
<path d="M619.634 219.432C619.338 219.288 619.063 219.106 618.814 218.891C618.514 218.633 618.23 218.357 617.964 218.064C617.702 217.777 617.461 217.471 617.243 217.149H616.967C616.24 217.186 615.517 217.019 614.882 216.667C614.363 216.341 613.972 215.848 613.775 215.269C613.536 214.577 613.423 213.847 613.439 213.114V208.608C613.42 207.885 613.533 207.164 613.775 206.482C613.976 205.916 614.367 205.437 614.882 205.124C615.52 204.779 616.241 204.616 616.967 204.652C617.701 204.613 618.433 204.777 619.081 205.124C619.598 205.436 619.992 205.916 620.197 206.482C620.439 207.164 620.553 207.885 620.533 208.608V213.223C620.536 213.759 620.48 214.293 620.365 214.817C620.269 215.261 620.08 215.68 619.812 216.047C619.561 216.401 619.22 216.683 618.824 216.864L619.229 217.296L619.654 217.729C619.784 217.845 619.922 217.95 620.069 218.044L619.634 219.432ZM616.967 215.496C617.106 215.517 617.247 215.51 617.384 215.475C617.52 215.441 617.648 215.379 617.76 215.295C617.872 215.211 617.967 215.105 618.037 214.984C618.108 214.863 618.154 214.729 618.172 214.59C618.233 214.286 618.263 213.976 618.261 213.666V208.008C618.264 207.697 618.234 207.387 618.172 207.083C618.123 206.832 617.995 206.605 617.806 206.433C617.563 206.258 617.266 206.175 616.967 206.197C616.673 206.174 616.382 206.258 616.146 206.433C615.954 206.6 615.827 206.831 615.791 207.083C615.729 207.387 615.699 207.697 615.702 208.008V213.666C615.7 213.976 615.73 214.286 615.791 214.59C615.829 214.847 615.955 215.083 616.146 215.26C616.382 215.434 616.673 215.518 616.967 215.496Z" fill="#263238"/>
<path d="M625.582 217.189C624.84 217.231 624.102 217.057 623.458 216.687C622.946 216.352 622.571 215.846 622.401 215.26C622.196 214.54 622.1 213.794 622.114 213.046V204.741H624.307V213.312C624.308 213.674 624.334 214.036 624.386 214.394C624.42 214.696 624.544 214.98 624.742 215.211C624.851 215.321 624.983 215.405 625.127 215.46C625.272 215.514 625.427 215.537 625.582 215.526C625.741 215.54 625.902 215.52 626.052 215.465C626.202 215.411 626.339 215.324 626.451 215.211C626.638 214.975 626.758 214.693 626.797 214.394C626.858 214.037 626.887 213.675 626.886 213.312V204.741H629.06V213.046C629.074 213.794 628.977 214.54 628.773 215.26C628.603 215.843 628.232 216.349 627.726 216.687C627.076 217.059 626.33 217.233 625.582 217.189Z" fill="#263238"/>
<path d="M630.136 217.022L632.606 204.741H635.007L637.477 217.022H635.393L634.909 214.188H632.755L632.251 217.022H630.136ZM632.982 212.761H634.662L633.822 207.605L632.982 212.761Z" fill="#263238"/>
<path d="M638.653 217.022V204.741H640.906V215.496H643.87V217.041L638.653 217.022Z" fill="#263238"/>
<path d="M645.065 217.022V204.741H647.288V217.022H645.065Z" fill="#263238"/>
<path d="M650.42 217.022V206.394H648.444V204.741H654.599V206.394H652.623V217.022H650.42Z" fill="#263238"/>
<path d="M657.455 217.022V212.338L654.955 204.741H657.02L658.542 209.661L659.974 204.741H662.029L659.559 212.338V217.022H657.455Z" fill="#263238"/>
<path d="M413.972 54.2086L417.025 76.4864L402.788 79.8615C398.884 82.4942 394.807 84.8644 390.586 86.9562C384.816 89.6523 380.755 90.6658 378.73 90.6658C376.705 90.6658 369.235 87.6253 369.235 87.6253C369.235 87.6253 374.324 60.2799 380.103 57.2394C385.883 54.1988 401.069 49.82 413.972 54.2086Z" fill="white" stroke="#263238" stroke-linecap="round" stroke-linejoin="round"/>
<path d="M341.571 53.4314C341.571 53.4314 367.022 51.8176 370.747 51.8176C374.472 51.8176 382.761 61.0082 382.761 61.0082C382.761 61.0082 397.937 86.1691 396.662 87.6746C393.461 91.4531 390.902 88.7176 390.902 88.7176L390.319 91.3744C390.319 91.3744 387.849 94.4248 375.312 92.7422C362.774 91.0596 358.703 87.2908 355.68 86.5922C352.657 85.8936 336.187 81.3475 336.187 81.3475L341.571 53.4314Z" fill="white" stroke="#263238" stroke-linecap="round" stroke-linejoin="round"/>
<path d="M390.902 88.6683L386.713 80.6191" stroke="#263238" stroke-linecap="round" stroke-linejoin="round"/>
<path d="M386.713 92.3979L381.516 83.4927" stroke="#263238" stroke-linecap="round" stroke-linejoin="round"/>
<path d="M406.829 56.2258C406.829 56.2258 381.368 48.4621 376.329 53.8642C371.29 59.2664 360.393 73.4458 362.764 75.1383C365.135 76.8308 373.632 70.4053 375.608 69.0572C377.102 67.9792 378.468 66.7345 379.679 65.3475C382.04 67.6703 384.977 69.3304 388.19 70.1598C391.403 70.9892 394.779 70.9584 397.976 70.0707" fill="white"/>
<path d="M406.829 56.2258C406.829 56.2258 381.368 48.4621 376.329 53.8642C371.29 59.2664 360.393 73.4458 362.764 75.1383C365.135 76.8308 373.632 70.4053 375.608 69.0572C377.102 67.9792 378.468 66.7345 379.679 65.3475C382.04 67.6703 384.977 69.3304 388.19 70.1598C391.403 70.9892 394.779 70.9584 397.976 70.0707" stroke="#263238" stroke-linecap="round" stroke-linejoin="round"/>
<path d="M378.868 83.0103C378.868 83.0103 376.428 91.6892 377.416 93.1652C377.785 93.7828 378.347 94.262 379.017 94.5289C379.687 94.7957 380.426 94.8352 381.121 94.6412C381.955 94.2989 382.713 93.7975 383.354 93.1652C383.354 93.1652 383.719 85.7852 382.613 83.9353C381.506 82.0854 380.538 80.7963 378.868 83.0103Z" fill="white" stroke="#263238" stroke-linecap="round" stroke-linejoin="round"/>
<path d="M372.377 84.1225C372.377 84.1225 369.966 92.8014 370.895 94.2774C371.266 94.8957 371.83 95.3753 372.502 95.6421C373.173 95.9089 373.914 95.948 374.61 95.7534C375.437 95.4044 376.191 94.9037 376.833 94.2774C376.833 94.2774 377.199 86.8875 376.092 85.0475C374.986 83.2074 374.047 81.9085 372.377 84.1225Z" fill="white" stroke="#263238" stroke-linecap="round" stroke-linejoin="round"/>
<path d="M365.856 84.4274C365.856 84.4274 364.009 91.0891 364.72 92.2207C365.001 92.6898 365.428 93.0544 365.937 93.2587C366.445 93.4631 367.007 93.4959 367.536 93.3523C368.174 93.0881 368.754 92.7039 369.245 92.2207C369.245 92.2207 369.532 86.5528 368.682 85.1359C367.832 83.7189 367.131 82.7349 365.856 84.4274Z" fill="white" stroke="#263238" stroke-linecap="round" stroke-linejoin="round"/>
<path d="M358.16 84.7129C358.16 84.7129 356.708 89.1212 357.271 89.8691C357.531 90.1952 357.88 90.4394 358.276 90.5722C358.672 90.7049 359.099 90.7204 359.504 90.6169C359.993 90.4496 360.448 90.1963 360.847 89.8691C360.847 89.8691 361.074 86.12 360.403 85.1852C359.731 84.2504 359.168 83.6403 358.16 84.7129Z" fill="white" stroke="#263238" stroke-linecap="round" stroke-linejoin="round"/>
<path d="M418.517 47.336L408.885 49.3452L416.754 86.7617L426.386 84.7524L418.517 47.336Z" fill="white" stroke="#263238" stroke-linecap="round" stroke-linejoin="round"/>
<path d="M430.949 44.2454L415.534 47.4609L424.313 89.2017L439.727 85.9861L430.949 44.2454Z" fill="#FFC501" stroke="#263238" stroke-linecap="round" stroke-linejoin="round"/>
<path d="M330.014 84.752L339.646 86.7612L347.515 49.3448L337.883 47.3356L330.014 84.752Z" fill="white" stroke="#263238" stroke-linecap="round" stroke-linejoin="round"/>
<path d="M316.676 85.9851L332.09 89.2007L340.869 47.4599L325.455 44.2444L316.676 85.9851Z" fill="#263238" stroke="#263238" stroke-linecap="round" stroke-linejoin="round"/>
<path d="M325.052 115.325C324.306 115.367 323.565 115.182 322.928 114.794C322.418 114.443 322.04 113.934 321.851 113.347C321.64 112.662 321.537 111.948 321.545 111.232V106.843C321.534 106.103 321.637 105.367 321.851 104.658C322.035 104.074 322.415 103.57 322.928 103.232C323.573 102.867 324.311 102.696 325.052 102.74C325.736 102.708 326.417 102.853 327.028 103.163C327.484 103.458 327.831 103.893 328.016 104.403C328.224 105.004 328.324 105.637 328.312 106.272V107.256H326.159V106.272C326.16 105.96 326.14 105.647 326.099 105.337C326.082 105.086 325.982 104.847 325.813 104.658C325.7 104.564 325.569 104.494 325.428 104.452C325.287 104.409 325.139 104.396 324.993 104.412C324.842 104.399 324.69 104.416 324.546 104.462C324.402 104.507 324.268 104.581 324.153 104.678C323.965 104.872 323.844 105.12 323.807 105.387C323.759 105.712 323.736 106.041 323.738 106.371V111.704C323.729 112.074 323.762 112.444 323.837 112.806C323.887 113.068 324.033 113.303 324.246 113.464C324.46 113.626 324.726 113.703 324.993 113.682C325.138 113.699 325.284 113.684 325.423 113.638C325.561 113.592 325.688 113.516 325.793 113.416C325.961 113.215 326.065 112.968 326.089 112.708C326.139 112.382 326.163 112.053 326.159 111.724V110.602H328.312V111.586C328.331 112.253 328.234 112.919 328.026 113.554C327.855 114.092 327.507 114.556 327.038 114.872C326.433 115.209 325.744 115.366 325.052 115.325Z" fill="#263238"/>
<path d="M333.312 115.325C332.57 115.368 331.831 115.193 331.187 114.823C330.676 114.488 330.301 113.982 330.13 113.396C329.927 112.676 329.831 111.93 329.844 111.182V102.868H332.037V111.438C332.032 111.801 332.059 112.163 332.116 112.521C332.148 112.826 332.272 113.114 332.472 113.347C332.711 113.544 333.011 113.652 333.322 113.652C333.632 113.652 333.932 113.544 334.171 113.347C334.363 113.109 334.486 112.823 334.527 112.521C334.585 112.163 334.611 111.801 334.606 111.438V102.868H336.789V111.192C336.804 111.941 336.704 112.688 336.493 113.406C336.33 113.99 335.962 114.497 335.456 114.833C334.804 115.202 334.059 115.373 333.312 115.325Z" fill="#263238"/>
<path d="M341.66 115.325C341.014 115.346 340.373 115.197 339.803 114.892C339.299 114.602 338.903 114.156 338.677 113.623C338.401 112.975 338.257 112.279 338.252 111.576L340.178 111.192C340.19 111.617 340.25 112.04 340.356 112.452C340.428 112.767 340.581 113.059 340.801 113.298C340.904 113.398 341.026 113.476 341.16 113.526C341.294 113.577 341.438 113.6 341.581 113.593C341.728 113.607 341.876 113.585 342.012 113.528C342.148 113.471 342.268 113.382 342.362 113.268C342.52 113.022 342.599 112.734 342.589 112.442C342.611 111.975 342.483 111.513 342.223 111.123C341.937 110.74 341.606 110.393 341.235 110.09L339.684 108.722C339.266 108.368 338.912 107.946 338.637 107.473C338.364 106.947 338.232 106.361 338.252 105.77C338.228 105.358 338.291 104.945 338.437 104.559C338.584 104.172 338.81 103.821 339.101 103.527C339.747 102.974 340.583 102.692 341.433 102.74C341.93 102.725 342.424 102.813 342.885 102.995C343.251 103.157 343.568 103.411 343.804 103.733C344.036 104.059 344.21 104.422 344.318 104.806C344.43 105.221 344.5 105.646 344.525 106.075L342.609 106.4C342.594 106.069 342.551 105.74 342.48 105.416C342.43 105.149 342.307 104.901 342.125 104.698C342.026 104.608 341.911 104.539 341.785 104.496C341.66 104.452 341.526 104.433 341.394 104.442C341.249 104.437 341.105 104.463 340.972 104.519C340.839 104.575 340.72 104.66 340.623 104.767C340.44 104.999 340.345 105.288 340.356 105.583C340.354 105.928 340.442 106.267 340.613 106.567C340.826 106.874 341.079 107.152 341.364 107.394L342.895 108.742C343.406 109.169 343.846 109.674 344.199 110.238C344.573 110.862 344.761 111.578 344.743 112.304C344.754 112.851 344.618 113.392 344.348 113.869C344.097 114.317 343.723 114.686 343.271 114.931C342.778 115.202 342.223 115.338 341.66 115.325Z" fill="#263238"/>
<path d="M347.312 115.128V104.521H345.336V102.868H351.481V104.521H349.554V115.128H347.312Z" fill="#263238"/>
<path d="M355.907 115.325C355.18 115.358 354.458 115.188 353.823 114.833C353.304 114.511 352.913 114.021 352.716 113.445C352.477 112.752 352.363 112.023 352.38 111.29V106.695C352.361 105.969 352.475 105.245 352.716 104.56C352.917 103.994 353.308 103.514 353.823 103.202C354.479 102.895 355.196 102.735 355.922 102.735C356.648 102.735 357.365 102.895 358.022 103.202C358.534 103.517 358.924 103.996 359.128 104.56C359.372 105.245 359.49 105.968 359.474 106.695V111.3C359.489 112.027 359.372 112.75 359.128 113.435C358.923 114.009 358.534 114.5 358.022 114.833C357.377 115.19 356.644 115.36 355.907 115.325ZM355.907 113.672C356.205 113.693 356.5 113.605 356.737 113.426C356.925 113.245 357.053 113.012 357.103 112.756C357.164 112.452 357.194 112.142 357.192 111.831V106.173C357.195 105.863 357.165 105.553 357.103 105.249C357.048 105.004 356.921 104.781 356.737 104.609C356.498 104.433 356.203 104.349 355.907 104.373C355.62 104.351 355.336 104.435 355.107 104.609C354.916 104.775 354.788 105 354.741 105.249C354.671 105.552 354.637 105.862 354.643 106.173V111.831C354.64 112.142 354.67 112.452 354.732 112.756C354.774 113.012 354.899 113.247 355.087 113.426C355.322 113.602 355.613 113.69 355.907 113.672Z" fill="#263238"/>
<path d="M361.104 115.128L361.312 102.838H363.643L365.402 111.349L367.22 102.838H369.512L369.71 115.128H368.03L367.852 106.587L366.094 115.128H364.74L362.962 106.557L362.794 115.128H361.104Z" fill="#263238"/>
<path d="M371.488 115.128V102.868H376.665V104.452H373.701V107.984H376.003V109.549H373.701V113.613H376.665V115.128H371.488Z" fill="#263238"/>
<path d="M377.959 115.128V102.868H380.923C381.636 102.85 382.347 102.95 383.028 103.163C383.567 103.33 384.031 103.677 384.342 104.147C384.673 104.748 384.827 105.43 384.786 106.115C384.793 106.564 384.75 107.013 384.658 107.453C384.574 107.81 384.416 108.145 384.194 108.437C383.953 108.729 383.64 108.954 383.285 109.087L385.004 115.138H382.751L381.259 109.51H380.222V115.128H377.959ZM380.212 108.093H380.914C381.253 108.1 381.591 108.032 381.902 107.896C382.161 107.777 382.363 107.562 382.465 107.296C382.585 106.951 382.642 106.588 382.633 106.223C382.667 105.736 382.546 105.25 382.287 104.836C382.121 104.663 381.916 104.531 381.69 104.45C381.463 104.37 381.221 104.344 380.983 104.373H380.163L380.212 108.093Z" fill="#263238"/>
<path d="M390.171 115.128V102.868H392.424V113.613H395.388V115.128H390.171Z" fill="#263238"/>
<path d="M399.774 115.325C399.047 115.358 398.325 115.188 397.69 114.833C397.171 114.511 396.78 114.021 396.583 113.445C396.344 112.752 396.23 112.023 396.247 111.29V106.695C396.229 105.969 396.342 105.245 396.583 104.56C396.784 103.994 397.175 103.514 397.69 103.202C398.347 102.895 399.063 102.735 399.789 102.735C400.515 102.735 401.232 102.895 401.889 103.202C402.401 103.517 402.791 103.996 402.995 104.56C403.244 105.244 403.362 105.968 403.341 106.695V111.3C403.361 112.027 403.244 112.751 402.995 113.435C402.79 114.009 402.401 114.5 401.889 114.833C401.244 115.19 400.512 115.36 399.774 115.325ZM399.774 113.672C400.072 113.693 400.367 113.605 400.604 113.426C400.796 113.248 400.924 113.013 400.97 112.756C401.031 112.452 401.061 112.142 401.059 111.831V106.173C401.062 105.863 401.032 105.553 400.97 105.249C400.92 105.002 400.792 104.778 400.604 104.609C400.366 104.433 400.071 104.349 399.774 104.373C399.488 104.351 399.203 104.435 398.974 104.609C398.784 104.775 398.655 105 398.609 105.249C398.546 105.553 398.516 105.863 398.52 106.173V111.831C398.514 112.142 398.541 112.452 398.599 112.756C398.641 113.012 398.766 113.247 398.954 113.426C399.19 113.602 399.48 113.69 399.774 113.672Z" fill="#263238"/>
<path d="M406.602 115.128V110.435L404.092 102.868H406.196L407.718 107.738L409.151 102.868H411.206L408.736 110.464V115.128H406.602Z" fill="#263238"/>
<path d="M411.196 115.128L413.666 102.838H416.076L418.537 115.128H416.452L415.968 112.294H413.814L413.31 115.128H411.196ZM414.051 110.867H415.721L414.881 105.711L414.051 110.867Z" fill="#263238"/>
<path d="M419.712 115.128V102.868H421.965V113.613H424.929V115.128H419.712Z" fill="#263238"/>
<path d="M426.747 115.128V104.521H424.771V102.868H430.926V104.521H428.95V115.128H426.747Z" fill="#263238"/>
<path d="M433.781 115.128V110.434L431.282 102.838H433.386L434.908 107.709L436.34 102.838H438.395L435.925 110.434V115.128H433.781Z" fill="#263238"/>
<path d="M123.875 127.005V116.82L113.669 115.689C113.119 113.567 112.278 111.53 111.17 109.637L117.621 101.608L110.389 94.4639L102.367 100.85C100.468 99.7399 98.4272 98.8894 96.3004 98.3211L95.1642 88.0679H84.968L83.8121 98.2228C81.6787 98.7764 79.6312 99.6173 77.726 100.722L69.6639 94.2966L62.4416 101.499L68.8636 109.49C67.7458 111.381 66.8885 113.413 66.3146 115.531L56.069 116.663V126.837L66.2751 127.969C66.8275 130.093 67.6685 132.133 68.7747 134.031L62.3231 142.06L69.5552 149.253L77.5778 142.857C79.4748 143.971 81.5158 144.822 83.6441 145.386L84.7803 155.6H95.0061L96.1324 145.435C98.2654 144.885 100.313 144.047 102.219 142.946L110.281 149.361L117.503 142.168L111.081 134.178C112.199 132.287 113.056 130.255 113.63 128.136L123.875 127.005ZM89.9772 133.981C87.5635 133.983 85.2034 133.272 83.1955 131.938C81.1877 130.604 79.6222 128.707 78.6972 126.486C77.7721 124.266 77.5291 121.822 77.9988 119.464C78.4685 117.106 79.6298 114.94 81.3358 113.239C83.0419 111.539 85.216 110.38 87.5832 109.911C89.9504 109.441 92.4043 109.681 94.6345 110.601C96.8646 111.52 98.7709 113.078 100.112 115.076C101.453 117.075 102.169 119.425 102.169 121.829C102.169 125.05 100.885 128.14 98.5988 130.418C96.3126 132.697 93.2116 133.979 89.9772 133.981Z" fill="#F7F7F7" stroke="#F7F7F7" stroke-linecap="round" stroke-linejoin="round"/>
<path d="M164.008 106.577L162.872 99.8364L155.956 100.21C155.349 98.8691 154.565 97.6149 153.624 96.481L157.092 90.449L151.51 86.513L146.906 91.6298C145.525 91.1075 144.079 90.7764 142.608 90.6458L140.721 84.0137L133.953 85.1354L134.338 92.0234C132.987 92.6253 131.725 93.4064 130.584 94.3457L124.488 90.9017L120.536 96.4318L125.674 101.007C125.149 102.382 124.817 103.823 124.686 105.288L117.987 107.256L119.123 113.986L126.039 113.612C126.639 114.955 127.42 116.21 128.361 117.342L124.992 123.374L130.574 127.31L135.178 122.193C136.559 122.715 138.005 123.046 139.476 123.177L141.363 129.809L148.131 128.687L147.746 121.799C149.096 121.197 150.359 120.416 151.5 119.477L157.547 122.842L161.499 117.273L156.361 112.697C156.881 111.321 157.213 109.881 157.349 108.417L164.008 106.577ZM142.331 114.931C140.736 115.195 139.098 114.981 137.624 114.318C136.15 113.655 134.907 112.572 134.051 111.205C133.195 109.838 132.765 108.25 132.815 106.64C132.866 105.03 133.394 103.471 134.334 102.16C135.273 100.849 136.582 99.8445 138.095 99.274C139.607 98.7035 141.255 98.5923 142.831 98.9544C144.407 99.3166 145.84 100.136 146.948 101.309C148.057 102.481 148.792 103.955 149.06 105.544C149.417 107.673 148.913 109.856 147.658 111.616C146.402 113.375 144.497 114.567 142.361 114.931H142.331Z" fill="#FFC501" stroke="#263238" stroke-linecap="round" stroke-linejoin="round"/>
<path d="M147.993 168.579L146.856 161.838L139.94 162.212C139.334 160.871 138.55 159.617 137.609 158.483L140.988 152.461L135.396 148.525L130.801 153.642C129.419 153.126 127.973 152.795 126.504 152.658L124.607 146.025L117.849 147.157L118.224 154.045C116.875 154.651 115.613 155.432 114.47 156.367L108.423 153.012L104.471 158.571L109.609 163.157C109.085 164.529 108.753 165.966 108.621 167.427L101.952 169.248L103.078 175.988L109.994 175.604C110.595 176.952 111.379 178.21 112.326 179.344L108.947 185.366L114.529 189.302L119.133 184.185C120.514 184.707 121.96 185.038 123.431 185.169L125.318 191.811L132.086 190.679L131.71 183.791C133.059 183.194 134.318 182.416 135.455 181.479L141.511 184.834L145.463 179.275L140.326 174.689C140.846 173.313 141.178 171.873 141.314 170.409L147.993 168.579ZM126.326 176.943C124.728 177.211 123.086 177.001 121.608 176.339C120.13 175.678 118.882 174.594 118.022 173.226C117.163 171.858 116.73 170.267 116.779 168.654C116.827 167.041 117.355 165.478 118.296 164.164C119.236 162.85 120.547 161.843 122.062 161.271C123.578 160.699 125.229 160.587 126.808 160.95C128.387 161.313 129.822 162.135 130.932 163.311C132.042 164.486 132.777 165.963 133.044 167.555C133.401 169.687 132.895 171.873 131.635 173.633C130.375 175.393 128.466 176.584 126.326 176.943Z" fill="white" stroke="#263238" stroke-linecap="round" stroke-linejoin="round"/>
<path d="M82.0376 217.187L82.0444 217.191L82.0513 217.194C82.6954 217.545 83.4226 217.716 84.1558 217.688C84.8046 217.692 85.4435 217.528 86.01 217.213C86.5471 216.919 86.9909 216.481 87.2909 215.948L87.2909 215.948L87.2933 215.943C87.5967 215.391 87.7508 214.77 87.7406 214.141C87.7644 213.322 87.5504 212.513 87.1243 211.812L87.1243 211.812L87.1219 211.808C86.7445 211.2 86.273 210.655 85.7247 210.193L85.7232 210.192L84.1341 208.865C83.8878 208.656 83.6693 208.416 83.4838 208.153C83.3621 207.937 83.3001 207.693 83.3042 207.445L83.3044 207.432L83.304 207.419C83.2982 207.252 83.3505 207.088 83.4521 206.954C83.4978 206.907 83.553 206.869 83.6143 206.843C83.6802 206.815 83.7516 206.802 83.8233 206.805L83.851 206.806L83.8787 206.804C83.9454 206.799 84.0125 206.808 84.0756 206.829L84.2388 206.357L84.0756 206.829C84.1329 206.849 84.1859 206.879 84.2319 206.918C84.3394 207.039 84.4097 207.187 84.4344 207.346L84.4366 207.36L84.4395 207.374C84.5032 207.672 84.5426 207.974 84.5575 208.278L84.5851 208.84L85.1404 208.746L87.1164 208.412L87.5691 208.335L87.5312 207.878C87.4934 207.42 87.4158 206.967 87.2992 206.523L87.2993 206.523L87.2973 206.515C87.1749 206.076 86.9747 205.662 86.7062 205.293L86.7051 205.291C86.4172 204.898 86.0308 204.588 85.5848 204.391L85.5849 204.391L85.5757 204.388C85.0603 204.172 84.5049 204.068 83.9464 204.083C82.9756 204.035 82.0226 204.359 81.284 204.99L81.2683 205.004L81.2537 205.018C80.9131 205.362 80.6486 205.773 80.4774 206.225C80.3089 206.67 80.2344 207.145 80.2587 207.62C80.24 208.292 80.3918 208.957 80.7 209.555L80.7051 209.565L80.7106 209.575C81.0089 210.096 81.3951 210.561 81.8521 210.952L83.4276 212.374L83.4423 212.387L83.4579 212.399C83.7891 212.654 84.0866 212.949 84.3434 213.277C84.5367 213.577 84.6321 213.928 84.6167 214.283L84.6157 214.307L84.6169 214.331C84.626 214.508 84.5803 214.684 84.4859 214.834C84.4483 214.876 84.4013 214.91 84.3484 214.932C84.2894 214.957 84.225 214.966 84.1612 214.959L84.1252 214.955L84.089 214.957C84.0126 214.96 83.9363 214.947 83.8649 214.92C83.7976 214.895 83.7359 214.857 83.6831 214.809C83.5293 214.64 83.4217 214.435 83.3706 214.213L83.3701 214.21C83.2805 213.829 83.2286 213.44 83.2151 213.048L83.1949 212.463L82.6201 212.574L80.6441 212.958L80.2357 213.037L80.2394 213.453C80.2462 214.222 80.404 214.982 80.7038 215.691L80.7037 215.691L80.7073 215.699C80.9839 216.321 81.4492 216.842 82.0376 217.187Z" fill="#FFC501" stroke="#263238"/>
<path d="M92.4431 214.859C92.4549 214.85 92.4665 214.84 92.4779 214.831L92.8029 215.21C92.9929 214.975 93.1158 214.693 93.1586 214.394C93.2109 214.035 93.2373 213.674 93.2376 213.311M92.4431 214.859C92.56 214.701 92.6358 214.517 92.6636 214.323L92.6638 214.322C92.7127 213.987 92.7373 213.649 92.7376 213.311M92.4431 214.859C92.3031 214.965 92.131 215.024 91.9532 215.024C91.7735 215.024 91.5995 214.964 91.4587 214.855M92.4431 214.859L91.1035 215.21M92.7376 213.311V213.311H93.2376M92.7376 213.311L93.2376 213.311M92.7376 213.311V204.741V204.241H93.2376H95.4211H95.9211V204.741V213.04M93.2376 213.311V205.241V204.741H93.7376H94.9211H95.4211V205.241V213.046M95.9211 213.04C95.9211 213.038 95.921 213.037 95.921 213.035L95.4211 213.046M95.9211 213.04V213.046H95.4211M95.9211 213.04C95.938 213.836 95.8318 214.63 95.6064 215.394M95.4211 213.046C95.4375 213.794 95.3375 214.541 95.1247 215.26M95.1247 215.26L95.6085 215.386C95.6078 215.389 95.6071 215.391 95.6064 215.394M95.1247 215.26C94.9744 215.836 94.6245 216.342 94.1367 216.686C93.4722 217.068 92.7083 217.243 91.9433 217.188M95.1247 215.26L95.6041 215.402C95.6048 215.399 95.6056 215.397 95.6064 215.394M95.6064 215.394C95.4251 216.082 95.0069 216.684 94.4253 217.095L94.4061 217.108L94.3856 217.12C93.6441 217.546 92.7932 217.744 91.9398 217.689M91.9398 217.689C91.9505 217.689 91.9612 217.688 91.9719 217.688L91.9433 217.188M91.9398 217.689C91.9292 217.689 91.9185 217.688 91.9078 217.687L91.9433 217.188M91.9398 217.689C91.1118 217.73 90.2889 217.533 89.5701 217.12L89.5575 217.113L89.5454 217.105C88.9339 216.705 88.4856 216.1 88.2818 215.399L88.2809 215.396L88.281 215.396C88.0636 214.63 87.9607 213.837 87.9755 213.041M91.9433 217.188C91.2013 217.231 90.463 217.056 89.8191 216.686C89.3072 216.352 88.9323 215.846 88.762 215.26C88.5577 214.54 88.4611 213.794 88.4755 213.046M87.9755 213.041V213.046H88.4755M87.9755 213.041C87.9755 213.039 87.9755 213.038 87.9755 213.036L88.4755 213.046M87.9755 213.041V204.741V204.241H88.4755H90.6688H91.1688V204.741V213.311V213.315H91.1688C91.1661 213.653 91.1877 213.991 91.2333 214.326M88.4755 213.046V205.241V204.741H88.9755H90.1688H90.6688V205.241V213.311C90.666 213.673 90.6891 214.035 90.738 214.394M91.2333 214.326C91.2333 214.326 91.2333 214.325 91.2333 214.325L90.738 214.394M91.2333 214.326C91.2333 214.326 91.2334 214.326 91.2334 214.326L90.738 214.394M91.2333 214.326C91.2601 214.519 91.3379 214.702 91.4587 214.855M90.738 214.394C90.7796 214.695 90.9064 214.978 91.1035 215.21M91.1035 215.21L91.4285 214.831C91.4384 214.839 91.4485 214.847 91.4587 214.855M91.1035 215.21L91.4847 214.887C91.4758 214.876 91.4672 214.866 91.4587 214.855" fill="#FFC501" stroke="#263238"/>
<path d="M101.577 209.578C101.658 209.481 101.719 209.369 101.754 209.247C101.852 208.912 101.895 208.563 101.883 208.214C101.892 207.851 101.859 207.487 101.784 207.132L101.577 209.578ZM101.577 209.578C101.495 209.674 101.394 209.753 101.28 209.808M101.577 209.578L101.28 209.808M101.28 209.808C100.97 209.947 100.631 210.008 100.292 209.985H99.9324L101.28 209.808ZM96.6797 217.021V217.514L97.173 217.521L99.3663 217.55L99.873 217.557V217.05V212.089H100.592C101.259 212.106 101.922 211.978 102.535 211.714L102.535 211.714L102.538 211.713C103.133 211.452 103.624 211.001 103.933 210.43L103.938 210.421L103.942 210.411C104.275 209.73 104.432 208.976 104.398 208.218C104.414 207.514 104.292 206.813 104.039 206.155L104.039 206.155L104.038 206.153C103.806 205.56 103.389 205.058 102.849 204.72L102.832 204.709L102.814 204.7C102.183 204.373 101.477 204.214 100.767 204.241H97.1797H96.6797V204.741V217.021ZM101.111 206.948C101.205 207.019 101.27 207.121 101.295 207.235L101.295 207.235C101.362 207.553 101.391 207.877 101.383 208.201L101.382 208.217L101.383 208.233C101.394 208.528 101.357 208.823 101.274 209.107L101.274 209.107C101.258 209.161 101.231 209.212 101.195 209.255C101.16 209.296 101.116 209.331 101.067 209.355C100.834 209.458 100.58 209.503 100.325 209.486L100.308 209.485H100.292H99.9432L100.001 206.815H100.371H100.382L100.394 206.814C100.64 206.803 100.886 206.849 101.111 206.948Z" fill="#FFC501" stroke="#263238"/>
<path d="M109.717 209.247C109.682 209.369 109.622 209.481 109.54 209.578C109.458 209.674 109.357 209.753 109.243 209.808M109.717 209.247L109.258 207.235C109.325 207.553 109.355 207.877 109.346 208.201L109.346 208.217L109.346 208.233C109.357 208.528 109.32 208.823 109.237 209.107L109.237 209.107C109.222 209.161 109.195 209.212 109.158 209.255C109.123 209.296 109.08 209.331 109.031 209.355M109.717 209.247C109.815 208.912 109.859 208.563 109.846 208.214L109.717 209.247ZM109.243 209.808L109.039 209.352C109.036 209.353 109.033 209.354 109.031 209.355M109.243 209.808L109.025 209.358C109.027 209.357 109.029 209.356 109.031 209.355M109.243 209.808C108.933 209.947 108.594 210.008 108.255 209.985H107.906L107.916 209.485M109.031 209.355C108.798 209.458 108.543 209.503 108.288 209.486L108.272 209.485H108.255H107.916M107.916 209.485H107.416L109.258 207.235C109.234 207.121 109.168 207.019 109.074 206.948M107.916 209.485L107.974 206.815M107.974 206.815H108.334H108.346L108.357 206.814C108.603 206.803 108.849 206.849 109.074 206.948M107.974 206.815L107.984 206.326L107.485 206.315M107.974 206.815H107.485V206.315M109.074 206.948C109.086 206.954 109.098 206.959 109.11 206.964L109.322 206.512L109.049 206.93C109.058 206.936 109.066 206.942 109.074 206.948ZM107.485 206.315H108.334H107.485ZM104.643 217.021V217.514L105.136 217.521L107.369 217.55L107.876 217.557V217.05V212.089H108.585C109.252 212.106 109.915 211.978 110.528 211.714L110.528 211.714L110.531 211.713C111.126 211.452 111.617 211.001 111.926 210.43L111.931 210.421L111.935 210.411C112.268 209.73 112.425 208.976 112.391 208.218C112.407 207.514 112.285 206.813 112.032 206.155L112.032 206.155L112.031 206.153C111.799 205.56 111.382 205.058 110.842 204.72L110.825 204.709L110.807 204.7C110.176 204.373 109.47 204.214 108.759 204.241H105.143H104.643V204.741V217.021Z" fill="#FFC501" stroke="#263238"/>
<path d="M114.176 217.13L114.186 217.137L114.197 217.143C114.906 217.537 115.711 217.726 116.521 217.689C117.332 217.738 118.141 217.565 118.861 217.188L118.88 217.178L118.898 217.167C119.508 216.777 119.972 216.197 120.216 215.517L120.216 215.517L120.218 215.513C120.476 214.776 120.599 213.998 120.582 213.217V208.614C120.602 207.832 120.478 207.053 120.217 206.315L120.217 206.315L120.215 206.31C119.968 205.638 119.501 205.07 118.889 204.697L118.879 204.691L118.867 204.685C118.15 204.296 117.339 204.112 116.524 204.151C115.716 204.116 114.913 204.3 114.202 204.684L114.192 204.69L114.182 204.696C113.567 205.067 113.097 205.637 112.853 206.312L112.853 206.312L112.852 206.315C112.591 207.053 112.467 207.832 112.488 208.614V213.148C112.47 213.938 112.593 214.725 112.851 215.472L112.851 215.472C113.089 216.16 113.557 216.745 114.176 217.13ZM116.565 215.037L116.494 215.031L116.424 215.045C116.355 215.059 116.284 215.058 116.216 215.043C116.147 215.027 116.083 214.997 116.028 214.955L115.724 215.352L116.028 214.955C115.972 214.912 115.927 214.859 115.894 214.797L115.453 215.033L115.894 214.797C115.861 214.736 115.842 214.669 115.838 214.6L115.837 214.572L115.832 214.544C115.784 214.267 115.76 213.986 115.76 213.705V213.705V208.047H115.76L115.76 208.042C115.757 207.766 115.784 207.492 115.839 207.222L115.839 207.222L115.84 207.217C115.865 207.087 115.928 206.967 116.02 206.872C116.176 206.784 116.354 206.737 116.535 206.737C116.715 206.737 116.891 206.783 117.047 206.871C117.136 206.965 117.195 207.083 117.218 207.211L117.218 207.211L117.221 207.222C117.276 207.492 117.302 207.766 117.299 208.042L117.299 208.042V208.047L117.299 213.705L117.299 213.708C117.301 213.984 117.275 214.26 117.22 214.531L117.22 214.531L117.219 214.539C117.193 214.68 117.127 214.811 117.029 214.917C116.893 215.007 116.73 215.05 116.565 215.037ZM115.26 208.047V213.705C115.26 214.015 115.286 214.324 115.339 214.63L115.26 208.047Z" fill="#FFC501" stroke="#263238"/>
<path d="M121.241 217.021V217.528L121.748 217.521L124.06 217.492L124.553 217.485V216.992V211.863H124.657L126.05 217.12L126.148 217.492H126.533H128.786H129.448L129.267 216.855L127.664 211.212C127.929 211.057 128.166 210.857 128.362 210.618L128.367 210.612L128.371 210.606C128.64 210.258 128.83 209.856 128.928 209.427L128.928 209.427L128.929 209.423C129.03 208.956 129.081 208.479 129.078 208.001C129.121 207.225 128.941 206.453 128.56 205.775L128.552 205.761L128.543 205.747C128.174 205.18 127.616 204.759 126.969 204.559C126.235 204.33 125.468 204.222 124.699 204.241H121.741H121.241V204.741V217.021ZM124.72 209.486L124.708 209.485H124.696H124.494V206.776H124.824H124.857L124.889 206.772C125.048 206.751 125.209 206.768 125.359 206.822C125.495 206.87 125.619 206.948 125.722 207.048C125.909 207.36 125.995 207.723 125.966 208.086L125.963 208.113L125.964 208.139C125.972 208.438 125.926 208.735 125.827 209.016C125.772 209.157 125.668 209.274 125.533 209.345C125.276 209.452 124.998 209.5 124.72 209.486Z" fill="#FFC501" stroke="#263238"/>
<path d="M130.963 217.021V217.521H131.463H133.706H134.206V217.021V206.894H135.633H136.133V206.394V204.741V204.241H135.633H129.487H128.987V204.741V206.394V206.894H129.487H130.963V217.021Z" fill="#FFC501" stroke="#263238"/>
<path d="M72.6871 308.631H62.5107V338.87H72.6871V308.631Z" fill="#263238" stroke="#263238" stroke-width="0.5" stroke-linecap="round" stroke-linejoin="round"/>
<path d="M88.6829 319.505H78.5065V338.87H88.6829V319.505Z" fill="#FFC501" stroke="#263238" stroke-linecap="round" stroke-linejoin="round"/>
<path d="M104.679 302.009H94.5022V338.87H104.679V302.009Z" fill="#263238" stroke="#263238" stroke-width="0.5" stroke-linecap="round" stroke-linejoin="round"/>
<path d="M120.674 309.635H110.498V338.87H120.674V309.635Z" fill="#FFC501" stroke="#263238" stroke-linecap="round" stroke-linejoin="round"/>
<path d="M136.67 302.954H126.494V338.87H136.67V302.954Z" fill="#263238" stroke="#263238" stroke-width="0.5" stroke-linecap="round" stroke-linejoin="round"/>
<path d="M152.656 281.67H142.479V338.87H152.656V281.67Z" fill="#FFC501" stroke="#263238" stroke-linecap="round" stroke-linejoin="round"/>
<path d="M164.097 281.06H170.055" stroke="#263238" stroke-width="0.5" stroke-linecap="round" stroke-linejoin="round"/>
<path d="M164.097 292.622H170.055" stroke="#263238" stroke-width="0.5" stroke-linecap="round" stroke-linejoin="round"/>
<path d="M164.097 304.194H170.055" stroke="#263238" stroke-width="0.5" stroke-linecap="round" stroke-linejoin="round"/>
<path d="M164.097 315.756H170.055" stroke="#263238" stroke-width="0.5" stroke-linecap="round" stroke-linejoin="round"/>
<path d="M164.097 327.318H170.055" stroke="#263238" stroke-width="0.5" stroke-linecap="round" stroke-linejoin="round"/>
<path d="M164.097 338.88H170.055" stroke="#263238" stroke-width="0.5" stroke-linecap="round" stroke-linejoin="round"/>
<path d="M68.3301 297.483L83.9306 306.87L100.144 289.572L116.159 290.92L131.691 284.779L149.247 261.764" stroke="#263238" stroke-linecap="round" stroke-linejoin="round"/>
<path d="M70.2962 297.483C70.2962 297.093 70.1803 296.713 69.9632 296.389C69.746 296.066 69.4374 295.813 69.0764 295.664C68.7153 295.515 68.318 295.477 67.9347 295.552C67.5514 295.628 67.1993 295.816 66.9229 296.091C66.6466 296.366 66.4584 296.717 66.3821 297.099C66.3059 297.48 66.345 297.876 66.4946 298.236C66.6441 298.595 66.8974 298.903 67.2224 299.119C67.5473 299.335 67.9294 299.451 68.3202 299.451C68.8442 299.451 69.3469 299.243 69.7174 298.874C70.088 298.505 70.2962 298.005 70.2962 297.483Z" fill="#263238"/>
<path d="M85.8967 306.87C85.8967 306.481 85.7808 306.101 85.5637 305.777C85.3466 305.453 85.038 305.201 84.6769 305.052C84.3158 304.903 83.9185 304.864 83.5352 304.94C83.1519 305.016 82.7998 305.204 82.5235 305.479C82.2471 305.754 82.0589 306.105 81.9827 306.486C81.9064 306.868 81.9456 307.264 82.0951 307.623C82.2447 307.983 82.4979 308.29 82.8229 308.507C83.1478 308.723 83.5299 308.838 83.9207 308.838C84.4448 308.838 84.9474 308.631 85.3179 308.262C85.6885 307.893 85.8967 307.392 85.8967 306.87Z" fill="#263238"/>
<path d="M102.11 289.572C102.11 289.182 101.994 288.802 101.777 288.478C101.56 288.155 101.251 287.902 100.89 287.753C100.529 287.604 100.132 287.565 99.7483 287.641C99.365 287.717 99.0129 287.905 98.7365 288.18C98.4602 288.455 98.272 288.806 98.1957 289.188C98.1195 289.569 98.1586 289.965 98.3082 290.325C98.4578 290.684 98.711 290.992 99.036 291.208C99.3609 291.424 99.743 291.54 100.134 291.54C100.658 291.54 101.16 291.332 101.531 290.963C101.902 290.594 102.11 290.093 102.11 289.572Z" fill="#263238"/>
<path d="M118.125 290.92C118.125 290.53 118.009 290.15 117.792 289.826C117.575 289.503 117.267 289.25 116.905 289.101C116.544 288.953 116.147 288.914 115.764 288.989C115.38 289.065 115.028 289.253 114.752 289.528C114.476 289.803 114.287 290.154 114.211 290.536C114.135 290.917 114.174 291.313 114.324 291.673C114.473 292.032 114.727 292.34 115.051 292.556C115.376 292.772 115.758 292.888 116.149 292.888C116.673 292.888 117.176 292.68 117.547 292.311C117.917 291.942 118.125 291.442 118.125 290.92Z" fill="#263238"/>
<path d="M133.657 284.474C133.657 284.085 133.541 283.705 133.324 283.381C133.106 283.057 132.798 282.805 132.437 282.656C132.076 282.507 131.678 282.468 131.295 282.544C130.912 282.62 130.56 282.808 130.283 283.083C130.007 283.358 129.819 283.709 129.743 284.09C129.666 284.472 129.705 284.868 129.855 285.227C130.005 285.587 130.258 285.894 130.583 286.111C130.908 286.327 131.29 286.442 131.681 286.442C132.205 286.442 132.707 286.235 133.078 285.866C133.448 285.497 133.657 284.996 133.657 284.474Z" fill="#263238"/>
<path d="M151.223 261.744C151.223 261.355 151.107 260.974 150.89 260.651C150.673 260.327 150.365 260.075 150.003 259.926C149.642 259.777 149.245 259.738 148.862 259.814C148.478 259.89 148.126 260.077 147.85 260.352C147.574 260.628 147.385 260.978 147.309 261.36C147.233 261.742 147.272 262.137 147.422 262.497C147.571 262.857 147.825 263.164 148.149 263.38C148.474 263.596 148.856 263.712 149.247 263.712C149.771 263.712 150.274 263.505 150.645 263.135C151.015 262.766 151.223 262.266 151.223 261.744Z" fill="#263238"/>
<path d="M66.196 368.518V356.208H68.419V368.488L66.196 368.518Z" fill="#263238"/>
<path d="M70.3159 368.518L70.5333 356.208H72.8551L74.6137 364.71L76.4415 356.208H78.6942L78.9214 368.488H77.2418L77.064 359.977L75.3152 368.518H73.9518L72.1734 359.947L72.0054 368.518H70.3159Z" fill="#263238"/>
<path d="M80.6505 368.518V356.208H84.2764C84.9041 356.183 85.5273 356.322 86.0845 356.611C86.5336 356.892 86.88 357.31 87.0725 357.802C87.3045 358.404 87.4152 359.046 87.3985 359.691C87.4301 360.371 87.2909 361.047 86.9934 361.659C86.7376 362.132 86.3308 362.506 85.8375 362.722C85.2891 362.958 84.6957 363.072 84.0986 363.056H82.9031V368.518H80.6505ZM82.9031 361.482H83.7627C84.1016 361.504 84.4408 361.444 84.7507 361.305C84.8646 361.25 84.9657 361.171 85.0473 361.075C85.129 360.978 85.1895 360.865 85.2249 360.744C85.3229 360.409 85.3662 360.06 85.3533 359.711C85.3629 359.348 85.3297 358.984 85.2545 358.628C85.2312 358.501 85.1813 358.38 85.1081 358.274C85.0349 358.167 84.9401 358.077 84.8297 358.009C84.5213 357.864 84.1822 357.796 83.8417 357.812H82.9821L82.9031 361.482Z" fill="#263238"/>
<path d="M88.6236 368.518V356.208H91.5876C92.3039 356.19 93.0182 356.29 93.7019 356.503C94.2389 356.669 94.7005 357.017 95.0061 357.487C95.3434 358.086 95.5012 358.769 95.4606 359.455C95.4638 359.902 95.4174 360.347 95.3222 360.784C95.2392 361.141 95.0809 361.476 94.8579 361.768C94.6187 362.059 94.3045 362.28 93.9489 362.407L95.6779 368.459H93.3956L91.884 362.889H90.896V368.518H88.6236ZM90.896 361.482H91.5876C91.9464 361.5 92.3046 361.436 92.6349 361.295C92.8902 361.169 93.0879 360.951 93.1882 360.685C93.315 360.342 93.3721 359.978 93.3561 359.613C93.3898 359.127 93.2726 358.642 93.0202 358.225C92.8536 358.053 92.6491 357.921 92.4228 357.841C92.1965 357.761 91.9545 357.734 91.716 357.763H90.896V361.482Z" fill="#263238"/>
<path d="M100.45 368.685C99.7234 368.723 99.0009 368.556 98.3653 368.203C97.8435 367.878 97.4494 367.385 97.2488 366.806C97.0146 366.112 96.901 365.383 96.9129 364.651V360.055C96.8992 359.333 97.0129 358.613 97.2488 357.93C97.4537 357.363 97.8478 356.884 98.3653 356.572C99.0194 356.261 99.735 356.1 100.46 356.1C101.185 356.1 101.9 356.261 102.554 356.572C103.07 356.886 103.463 357.365 103.671 357.93C103.916 358.611 104.033 359.332 104.017 360.055V364.67C104.031 365.394 103.914 366.114 103.671 366.796C103.464 367.372 103.071 367.863 102.554 368.193C101.914 368.553 101.184 368.723 100.45 368.685ZM100.45 367.032C100.748 367.058 101.045 366.97 101.28 366.786C101.467 366.61 101.591 366.379 101.636 366.127C101.697 365.822 101.727 365.512 101.724 365.202V359.544C101.728 359.233 101.698 358.923 101.636 358.619C101.591 358.37 101.466 358.142 101.28 357.969C101.034 357.816 100.75 357.734 100.46 357.734C100.17 357.734 99.8855 357.816 99.6398 357.969C99.4508 358.141 99.3226 358.369 99.2742 358.619C99.212 358.923 99.1822 359.233 99.1853 359.544V365.202C99.1832 365.512 99.213 365.822 99.2742 366.127C99.3103 366.382 99.4364 366.615 99.6299 366.786C99.862 366.969 100.155 367.057 100.45 367.032Z" fill="#263238"/>
<path d="M107.504 368.518L105.014 356.208H106.99L108.621 364.897L110.162 356.208H112.207L109.727 368.488L107.504 368.518Z" fill="#263238"/>
<path d="M113.472 368.518V356.208H118.649V357.782H115.685V361.315H117.977V362.88H115.685V366.943H118.649V368.488L113.472 368.518Z" fill="#263238"/>
<path d="M119.953 368.518L120.17 356.237H122.512L124.261 364.739L126.089 356.237H128.341L128.568 368.518H126.889L126.711 359.976L124.962 368.518H123.599L121.811 359.947L121.643 368.518H119.953Z" fill="#263238"/>
<path d="M130.297 368.518V356.208H135.475V357.782H132.511V361.315H134.803V362.88H132.511V366.943H135.475V368.488L130.297 368.518Z" fill="#263238"/>
<path d="M136.808 368.518V356.208H138.379L141.343 363.214V356.208H143.26V368.488H141.768L138.745 361.148V368.488L136.808 368.518Z" fill="#263238"/>
<path d="M146.343 368.518V357.891H144.367V356.208H150.522V357.861H148.546V368.488L146.343 368.518Z" fill="#263238"/>
<path d="M422.192 431.287H334.221L347.41 382.924H408.992L422.192 431.287Z" fill="#263238" stroke="#263238" stroke-linecap="round" stroke-linejoin="round"/>
<path d="M445.064 431.287H311.348V436.197H445.064V431.287Z" fill="#263238" stroke="#263238" stroke-linecap="round" stroke-linejoin="round"/>
<path d="M568.367 147.541H188.036V388.001H568.367V147.541Z" fill="#263238" stroke="#263238" stroke-linecap="round" stroke-linejoin="round"/>
<path d="M556.185 156.712H200.228V378.84H556.185V156.712Z" fill="#B2B2B2" stroke="#263238" stroke-linecap="round" stroke-linejoin="round"/>
<path d="M307.772 212.761L284.712 216.598L291.984 322.526L325.408 325.212C325.408 325.212 332.669 284.485 333.084 277.872C333.499 271.26 321.228 221.646 321.228 221.646L307.772 212.761Z" fill="#FFC501" stroke="#263238" stroke-linecap="round" stroke-linejoin="round"/>
<path d="M341.848 378.84C342.606 376.231 342.982 373.527 342.964 370.811C342.698 366.875 341.65 360.862 341.65 360.862L332.185 361.649L335.851 378.84H341.848Z" fill="white" stroke="#263238" stroke-linecap="round" stroke-linejoin="round"/>
<path d="M240.361 378.84H336.078C335.821 376.744 335.09 371.46 334.329 366.156C333.292 359.337 326.238 311.574 326.238 311.574L255.892 304.952C255.892 304.952 239.491 336.587 237.209 345.886C234.927 355.185 240.084 377.099 240.084 377.099L240.361 378.84Z" fill="#263238" stroke="#263238" stroke-linecap="round" stroke-linejoin="round"/>
<path d="M333.084 140.81C333.084 140.81 338.479 139.571 340.761 148.043C343.043 156.515 340.346 160.835 341.384 164.997C342.421 169.159 344.654 178.842 341.947 188.554C339.24 198.266 329.557 205.282 329.103 208.825L328.688 212.337C328.688 212.337 327.235 213.784 322.671 213.371C318.106 212.957 312.495 209.651 312.495 209.651L313.117 202.625C313.117 202.625 321.021 202.625 322.878 201.179C324.736 199.732 332.837 185.435 333.46 181.332C334.082 177.228 334.497 165.41 333.875 161.898C333.252 158.385 328.935 151.142 327.235 150.523C325.536 149.903 317.889 144.53 317.889 144.53C317.889 144.53 328.52 138.124 333.084 140.81Z" fill="#263238" stroke="#263238" stroke-linecap="round" stroke-linejoin="round"/>
<path d="M338.271 229.705C338.271 229.705 344.921 232.805 345.128 237.971C345.336 243.137 341.591 266.084 341.591 267.747C341.591 269.409 339.724 303.712 339.724 303.712L343.745 363.47L334.29 364.001C334.29 364.001 326.04 319.8 326.86 314.467C327.68 309.134 332.669 282.625 333.084 277.872C333.499 273.119 332.462 252.859 333.914 246.866C335.367 240.873 338.271 229.705 338.271 229.705Z" fill="white" stroke="#263238" stroke-linecap="round" stroke-linejoin="round"/>
<path d="M324.064 145.317C324.064 145.317 334.319 149.489 335.979 156.731C337.639 163.974 335.149 173.056 335.979 178.852C336.809 184.647 328.51 199.112 325.605 202.625C322.701 206.138 315.636 204.898 315.636 204.898L316.703 216.48C316.703 216.48 321.051 230.945 320.418 234.664C319.786 238.384 312.939 243.845 304.235 243.343C293.436 242.723 290.106 232.716 290.106 232.716L291.559 209.769C291.922 205.041 291.786 200.289 291.154 195.59C290.116 187.117 292.399 174.296 293.229 172.229C294.058 170.163 301.745 161.691 306.517 158.385C311.289 155.078 320.626 145.593 320.626 145.593C320.626 145.593 323.372 144.441 324.064 145.317Z" fill="white" stroke="#263238" stroke-linecap="round" stroke-linejoin="round"/>
<path d="M291.144 214.109C291.144 214.109 259.192 217.061 254.588 220.19C249.984 223.319 256.663 289.651 256.663 289.651C256.663 289.651 230.975 345.886 231.755 346.299C232.536 346.713 244.826 356.838 257.908 359.091C270.989 361.345 290.077 363.027 290.077 363.027C290.077 363.027 296.924 307.205 297.754 302.866C298.583 298.526 295.886 255.525 296.301 249.533C296.716 243.54 291.144 214.109 291.144 214.109Z" fill="white" stroke="#263238" stroke-linecap="round" stroke-linejoin="round"/>
<path d="M292.063 281.365C293.005 283.573 294.087 285.72 295.303 287.791" stroke="#263238" stroke-linecap="round" stroke-linejoin="round"/>
<path d="M283.872 227.885C285.245 240.273 287.36 259.52 288.042 266.704C288.52 271.081 289.6 275.372 291.253 279.456" stroke="#263238" stroke-linecap="round" stroke-linejoin="round"/>
<path d="M282.637 216.805C282.637 216.805 282.963 219.757 283.457 224.195" stroke="#263238" stroke-linecap="round" stroke-linejoin="round"/>
<path d="M324.064 145.317C321.999 148.83 319.688 152.194 317.148 155.384C313.532 159.703 299.818 168.569 299.818 168.569C299.818 168.569 300.056 173.371 299.087 174.808C298.119 176.244 294.997 175.29 294.997 175.29C294.997 175.29 292.833 187.029 293.555 195.668C294.276 204.308 298.613 206.689 297.408 208.854C296.202 211.019 288.605 216.726 278.26 212.682C267.916 208.638 262.61 204.524 259.963 198.05C257.315 191.575 266.592 157.066 273.33 146.036C280.068 135.005 296.202 127.812 306.073 129.012C315.943 130.213 333.519 135.487 334.962 139.561C336.404 143.635 324.064 145.317 324.064 145.317Z" fill="#263238" stroke="#263238" stroke-linecap="round" stroke-linejoin="round"/>
<path d="M293.229 172.2C293.229 172.2 283.941 182.493 282.034 193.602C280.128 204.712 285.858 209.474 288.091 210.429" stroke="#5C5C5C" stroke-linecap="round" stroke-linejoin="round"/>
<path d="M265.821 192.087C265.571 194.208 265.773 196.357 266.414 198.394" stroke="#5C5C5C" stroke-linecap="round" stroke-linejoin="round"/>
<path d="M309.244 151.812C306.908 153.88 304.414 155.765 301.785 157.45C289.168 165.656 272.313 175.526 267.205 187.049" stroke="#5C5C5C" stroke-linecap="round" stroke-linejoin="round"/>
<path d="M316.16 139.669C316.16 139.669 317.227 142.995 312.445 148.594" stroke="#5C5C5C" stroke-linecap="round" stroke-linejoin="round"/>
<path d="M316.703 216.48C316.703 216.48 334.329 227.019 338.271 229.705C342.214 232.391 335.574 257.611 336.197 262.571C336.819 267.53 338.686 279.299 336.819 284.278C334.952 289.257 333.914 292.346 333.914 292.346L330.387 315.087C330.387 315.087 336.197 358.707 335.989 359.367C335.782 360.026 315.439 362.673 315.439 362.673C315.439 362.673 319.173 318.393 321.258 309.124C323.343 299.854 330.15 286.177 328.52 270.885C326.89 255.594 316.703 216.48 316.703 216.48Z" fill="white" stroke="#263238" stroke-linecap="round" stroke-linejoin="round"/>
<path d="M332.699 270.866C332.44 275.846 331.233 280.731 329.142 285.262" stroke="#263238" stroke-linecap="round" stroke-linejoin="round"/>
<path d="M327.028 224.942C327.028 224.942 332.521 254.521 332.798 266.192" stroke="#263238" stroke-linecap="round" stroke-linejoin="round"/>
<path d="M334.932 257.611C334.932 257.611 333.667 247.289 331.968 241.867" stroke="#263238" stroke-linecap="round" stroke-linejoin="round"/>
<path d="M319.124 173.863C319.124 175.497 318.334 176.815 317.346 176.815C316.358 176.815 315.567 175.487 315.567 173.863C315.567 172.24 316.358 170.911 317.346 170.911C318.334 170.911 319.124 172.2 319.124 173.863Z" fill="#263238"/>
<path d="M334.231 173.863C334.231 175.497 333.44 176.815 332.452 176.815C331.464 176.815 330.664 175.487 330.664 173.863C330.664 172.24 331.464 170.911 332.452 170.911C333.44 170.911 334.231 172.2 334.231 173.863Z" fill="#263238"/>
<path d="M311.951 168.264C313.423 167.298 315.091 166.665 316.835 166.409C318.58 166.154 320.359 166.284 322.048 166.788" stroke="#263238" stroke-linecap="round" stroke-linejoin="round"/>
<path d="M334.527 168.264C334.02 167.685 333.321 167.306 332.558 167.198C331.794 167.089 331.016 167.258 330.367 167.674C330.367 167.674 327.7 171.226 328.293 173.578" stroke="#263238" stroke-linecap="round" stroke-linejoin="round"/>
<path d="M328.589 187.777L322.938 188.662" stroke="#263238" stroke-linecap="round" stroke-linejoin="round"/>
<path d="M325.052 192.51C325.052 192.51 316.733 194.872 311.684 188.663" stroke="#263238" stroke-linecap="round" stroke-linejoin="round"/>
<path d="M315.646 204.898L307.485 202.271L314.619 210.861L315.646 204.898Z" fill="#263238" stroke="#263238" stroke-linecap="round" stroke-linejoin="round"/>
<path d="M463.234 216.244C461.285 219.24 459.862 222.544 459.025 226.015C457.859 231.358 456.693 237.41 456.693 237.41C456.693 237.41 462.532 232.756 463.234 232.49C463.935 232.224 462.769 226.448 462.769 226.448L466.721 223.191L463.234 216.244Z" fill="#263238" stroke="#263238" stroke-linecap="round" stroke-linejoin="round"/>
<path d="M465.565 137.868C465.565 137.868 459.726 139.964 457.395 144.146C455.063 148.328 448.987 158.099 449.925 161.356C450.864 164.613 451.318 166.011 451.318 166.011C451.318 166.011 442.92 180.662 443.849 182.06C444.986 183.469 446.235 184.785 447.584 185.996C447.584 185.996 451.318 203.432 452.958 204.593C454.599 205.754 459.262 206.453 459.262 206.453L466.03 214.827L503.159 199.752L503.633 191.614C503.633 191.614 516.24 175.329 517.87 166.03C519.5 156.731 507.595 140.682 494.751 134.404C481.907 128.127 468.371 131.59 465.565 137.868Z" fill="white" stroke="#263238" stroke-linecap="round" stroke-linejoin="round"/>
<path d="M453.492 171.02C455.095 172.338 457.07 173.126 459.143 173.273" stroke="#263238" stroke-linecap="round" stroke-linejoin="round"/>
<path d="M494.751 134.385C481.907 128.107 468.371 131.591 465.565 137.869C465.565 137.869 466.731 138.803 470.505 138.567C474.28 138.331 483.122 134.631 485.454 137.869C487.785 141.106 478.449 143.92 474.951 148.801C471.454 153.681 472.383 153.918 475.179 157.657C477.975 161.396 478.449 163.01 477.985 164.633C477.52 166.257 476.819 167.654 479.852 168.127C482.885 168.599 483.804 161.15 488.487 163.472C493.17 165.794 493.862 172.771 492.222 177.425C491.821 178.726 491.16 179.933 490.278 180.973C489.397 182.013 488.314 182.864 487.094 183.477C487.094 183.477 487.785 186.498 492.923 189.056C496.291 190.637 499.951 191.508 503.673 191.615C503.673 191.615 516.279 175.329 517.91 166.031C519.54 156.732 507.595 140.712 494.751 134.385Z" fill="#263238" stroke="#263238" stroke-linecap="round" stroke-linejoin="round"/>
<path d="M503.633 176.047C504.397 177.985 504.695 180.075 504.502 182.148" stroke="#5C5C5C" stroke-linecap="round" stroke-linejoin="round"/>
<path d="M477.076 151.88C477.076 151.88 478.726 155.167 487.944 159.113C493.14 161.337 498.031 166.06 501.143 171.049" stroke="#5C5C5C" stroke-linecap="round" stroke-linejoin="round"/>
<path d="M502.517 161.75C502.517 161.75 510.776 166.67 509.433 176.225" stroke="#5C5C5C" stroke-linecap="round" stroke-linejoin="round"/>
<path d="M457.444 166.591C457.444 168.195 456.762 169.543 455.922 169.543C455.083 169.543 454.411 168.234 454.411 166.591C454.411 164.948 455.083 163.639 455.922 163.639C456.762 163.639 457.444 164.987 457.444 166.591Z" fill="#263238"/>
<path d="M452.504 160.195C452.504 160.195 456.703 155.275 460.408 160.432" stroke="#263238" stroke-linecap="round" stroke-linejoin="round"/>
<path d="M450.854 186.704C450.854 186.704 456.456 186.242 459.963 182.768" stroke="#263238" stroke-linecap="round" stroke-linejoin="round"/>
<path d="M487.084 183.457L484.515 184.146C483.371 187.56 481.451 190.665 478.903 193.218" fill="white"/>
<path d="M487.084 183.457L484.515 184.146C483.371 187.56 481.451 190.665 478.903 193.218" stroke="#263238" stroke-linecap="round" stroke-linejoin="round"/>
<path d="M503.88 196.239C503.88 196.239 467.452 211.363 465.822 213.223C464.192 215.083 463.253 216.244 463.253 216.244L466.049 231.132L508.534 203.216L503.88 196.239Z" fill="white" stroke="#263238" stroke-linecap="round" stroke-linejoin="round"/>
<path d="M397.937 298.723L399.962 313.532L390.497 315.775C387.892 317.526 385.172 319.1 382.356 320.489C378.532 322.28 375.825 322.949 374.452 322.949C373.079 322.949 368.149 320.932 368.149 320.932C368.149 320.932 371.528 302.757 375.361 300.74C379.194 298.723 389.371 295.8 397.937 298.723Z" fill="white" stroke="#263238" stroke-linecap="round" stroke-linejoin="round"/>
<path d="M350.286 304.932C350.286 304.932 368.07 302.304 370.046 302.029C372.022 301.753 377.199 306.053 377.199 306.053C377.199 306.053 387.247 318.452 386.674 319.357C385.231 321.63 383.66 320.341 383.66 320.341L383.542 321.817C383.542 321.817 382.445 323.647 375.568 323.667C368.692 323.687 366.232 322.004 364.542 321.866C362.853 321.728 349.535 318.344 349.535 318.344L350.286 304.932Z" fill="white" stroke="#263238" stroke-linecap="round" stroke-linejoin="round"/>
<path d="M344.318 303.613L350.849 304.784L350.127 319.446L344.19 319.062L344.318 303.613Z" fill="white" stroke="#263238" stroke-linecap="round" stroke-linejoin="round"/>
<path d="M271.907 219.265C271.907 219.265 253.333 217.976 249.44 220.987C245.548 223.998 247.464 263.801 250.745 278.216C254.025 292.632 258.52 315.658 260.625 316.73C262.729 317.803 345.178 321.129 345.178 321.129L346.047 303.269L282.449 289.621L277.915 233.257" fill="white"/>
<path d="M271.907 219.265C271.907 219.265 253.333 217.976 249.44 220.987C245.548 223.998 247.464 263.801 250.745 278.216C254.025 292.632 258.52 315.658 260.625 316.73C262.729 317.803 345.178 321.129 345.178 321.129L346.047 303.269L282.449 289.621L277.915 233.257" stroke="#263238" stroke-linecap="round" stroke-linejoin="round"/>
<path d="M383.71 320.341L380.844 316.327" stroke="#263238" stroke-linecap="round" stroke-linejoin="round"/>
<path d="M381.734 322.664L378.266 318.265" stroke="#263238" stroke-linecap="round" stroke-linejoin="round"/>
<path d="M393.224 300.12C393.224 300.12 376.329 294.954 372.95 298.546C369.571 302.137 362.359 311.564 363.94 312.686C365.52 313.807 371.142 309.537 372.496 308.641C373.49 307.924 374.399 307.095 375.203 306.172C376.772 307.717 378.723 308.822 380.859 309.375C382.995 309.928 385.239 309.909 387.365 309.32" fill="white"/>
<path d="M393.224 300.12C393.224 300.12 376.329 294.954 372.95 298.546C369.571 302.137 362.359 311.564 363.94 312.686C365.52 313.807 371.142 309.537 372.496 308.641C373.49 307.924 374.399 307.095 375.203 306.172C376.772 307.717 378.723 308.822 380.859 309.375C382.995 309.928 385.239 309.909 387.365 309.32" stroke="#263238" stroke-linecap="round" stroke-linejoin="round"/>
<path d="M374.62 317.832C374.62 317.832 373.019 323.608 373.632 324.582C373.879 324.993 374.254 325.312 374.7 325.49C375.146 325.668 375.639 325.694 376.102 325.566C376.651 325.334 377.15 325 377.574 324.582C377.574 324.582 377.821 319.662 377.08 318.452C376.339 317.242 375.727 316.395 374.62 317.832Z" fill="white" stroke="#263238" stroke-linecap="round" stroke-linejoin="round"/>
<path d="M370.302 318.6C370.302 318.6 368.702 324.366 369.314 325.35C369.558 325.761 369.931 326.081 370.376 326.259C370.821 326.437 371.313 326.463 371.775 326.334C372.327 326.104 372.83 325.77 373.257 325.35C373.257 325.35 373.504 320.43 372.763 319.22C372.022 318.009 371.419 317.134 370.302 318.6Z" fill="white" stroke="#263238" stroke-linecap="round" stroke-linejoin="round"/>
<path d="M365.965 318.816C365.965 318.816 364.74 323.244 365.214 323.992C365.401 324.308 365.687 324.553 366.028 324.69C366.37 324.827 366.747 324.848 367.101 324.75C367.527 324.574 367.913 324.317 368.237 323.992C368.237 323.992 368.425 320.233 367.862 319.288C367.299 318.344 366.815 317.685 365.965 318.816Z" fill="white" stroke="#263238" stroke-linecap="round" stroke-linejoin="round"/>
<path d="M360.857 318.993C360.857 318.993 359.869 321.945 360.264 322.427C360.437 322.643 360.669 322.805 360.932 322.892C361.195 322.979 361.478 322.989 361.746 322.919C362.072 322.809 362.377 322.642 362.645 322.427C362.645 322.427 362.794 319.928 362.349 319.308C361.904 318.688 361.529 318.245 360.857 318.993Z" fill="white" stroke="#263238" stroke-linecap="round" stroke-linejoin="round"/>
<path d="M396.583 297.148L398.836 318.019L406.266 316.671L403.568 295.8L396.583 297.148Z" fill="white" stroke="#263238" stroke-linecap="round" stroke-linejoin="round"/>
<path d="M401.316 294.462L405.821 320.932L436.676 316.897L440.055 286.826L401.316 294.462Z" fill="#FFC501" stroke="#263238" stroke-linecap="round" stroke-linejoin="round"/>
<path d="M425.541 318.354L436.676 316.897L440.055 286.826L431.924 288.43L425.541 318.354Z" fill="#263238" stroke="#263238" stroke-linecap="round" stroke-linejoin="round"/>
<path d="M518.7 378.84L516.181 330.624C516.181 330.624 526.772 284.376 524.519 258.792C522.267 233.208 504.917 206.522 504.917 206.522C504.917 206.522 464.143 231.87 459.865 236.357C455.587 240.844 447.939 248.46 445.687 255.643C443.434 262.826 434.651 307.008 434.651 307.008C434.651 307.008 425.413 337.975 422.489 356.602C420.71 367.927 420.928 375.002 421.372 378.82L518.7 378.84Z" fill="#FFC501" stroke="#263238" stroke-linecap="round" stroke-linejoin="round"/>
<path d="M503.386 214.955C506.18 213.826 508.911 212.549 511.567 211.127" stroke="#263238" stroke-linecap="round" stroke-linejoin="round"/>
<path d="M447.939 265.887C451.457 259.55 455.843 252.022 457.819 249.729C461.554 245.547 489.574 220.898 499.849 216.48" stroke="#263238" stroke-linecap="round" stroke-linejoin="round"/>
<path d="M442.683 275.52C442.683 275.52 444.353 272.371 446.635 268.238" stroke="#263238" stroke-linecap="round" stroke-linejoin="round"/>
<path d="M468.589 277.941C468.589 292.366 466.613 306.644 467.601 320.922C462.483 339.284 453.265 355.598 446.635 372.828" stroke="#263238" stroke-linecap="round" stroke-linejoin="round"/>
<path d="M472.343 248.342C472.343 248.342 468.134 254.62 468.599 266.241C468.658 267.668 468.678 269.616 468.668 271.928" stroke="#263238" stroke-linecap="round" stroke-linejoin="round"/>
<path d="M512.97 254.856C512.97 254.856 503.633 326.491 502.694 332.307C502.023 336.469 487.706 359.239 479.625 371.824" stroke="#263238" stroke-linecap="round" stroke-linejoin="round"/>
<path d="M451.259 358.511L432.161 355.204L433.406 349.409L452.089 352.725" stroke="#263238" stroke-linecap="round" stroke-linejoin="round"/>
</svg>
